<svg xmlns="http://www.w3.org/2000/svg" aria-label="Kerem Teknik Servis traced logo" viewBox="0 0 715 240"><path fill="#f8ca31" d="m123.5 27 3.5 4.5q-.5 3 1.5 3.5 2.6-.8 1.5 2.5l-3 3V43q-2.6-.7-3.5 1l-.5-2h-1.5l-4.5-4.5-1-2q.7-1.3 1.5.5l1.5-1.5 1.5-2.5 2.5-1.5z" opacity=".988"/><path fill="#f8ca31" d="m215.5 65 1.5 2.5v2l2 3q-2.2 1.3.5 2.5 2.3-.7 1.5 1.5l6 5q-4 1-6 4l-3 5V92h-3.5l-1.5-1.5-1.5-2.5h-1l-5-5q-3 .5-3.5-1.5 2.1-3.6 7-3.5v-1.5l5-6q-2-1 0-2-.5-3 1.5-3.5" opacity=".988"/><path fill="#f8ca31" d="m191.5 101 3.5 3.5-1.5 1.5-2 1-.5-2-2-.5z" opacity=".988"/><path fill="#f8ca31" d="m95.5 109 1.5 2.5-2.5 2.5-.5-.5 2-2-1-1z" opacity=".988"/><path fill="#f8ca31" d="M102.5 112q1.5 1-1 2-1.5-1 1-2" opacity=".988"/><path fill="#f8ca31" d="m103.5 114 3 1 16.5 14.5.5 3.5 1-2 .5 3.5q-1.5.5-1 3 1.5.5 1 3l-2 2 .5.5 2 1q.8-1.7 1.5-.5l-2.5 2.5h-2L98 122.5l-1-2 3.5-3.5h1.5q-.5-2.1 1.5-3m15.5 21q-1 3 2 2 1-3-2-2" opacity=".988"/><path fill="#f8ca31" d="M92.5 115q1.5 1-1 2-1.5-1 1-2" opacity=".988"/><path fill="#f8ca31" d="m97.5 117 .5.5-2 2-.5 1.5-.5-1.5z" opacity=".988"/><path fill="#f8ca31" d="M62.5 150h5l5 3L91 171.5v8l-3.5 3.5q-2.2-.7-1.5 1.5l-6 5q1.7.8.5 1.5-2.2-.7-1.5 1.5l-7.5 7.5H70v1.5l-3.5 3.5q-2.6-.7-1.5 2h-2v2h-2v2.5l-1.5 1.5-2.5.5 1 1-8.5 8.5h-1l-2 2H37l-.5-2q-1 2-2 0h-2q-1-2.5-3.5-2 1.3-3-2.5-2L16 208.5l-3-6v-3l1-1v-2l1-2L28.5 181l2.5-1.5 1.5-2.5h1l24-24zm1.5 5-9 9h-2v3h-1l-5 6q-3-1-2 2l-7 7-1-1-5 5v1l-8 8-4 1q1 2-1 3-1 2 2 1 1 1-1 2-1 2 2 1v2q3-1 4 1 2-1 2-4h2l2-2h1l6-6v-1l3-3h1l6-6v-1l3-3h1l5-6q2 1 1-2h2v-2h2v-2h2l7-7-1-2q1-3-2-2v-2zm19 14q-1 4-4 6-3-1-2 2h-1q-2 1 0 2l-20 20q-4-1-3 3l-2 2-1-1-1 3-10 10v1l-2 2v1q2 0 3 1h5l2-2h1l29-30q-1-3 2-2v-2h2v-2h2v-2h2q0-3 2-3 0-7-4-9" opacity=".988"/><path fill="#f8ca31" d="M142.5 153q2.5 1 1 2-2.5-1-1-2" opacity=".988"/><path fill="#f8ca31" d="M138.5 154q2.5 1 1 2-2.5-1-1-2" opacity=".988"/><path fill="#f8ca31" d="M165.5 179q2.5 1 1 2-2.5-1-1-2" opacity=".988"/><path fill="#f8ca31" d="M182.5 180q1.5 1-1 2-1.5-1 1-2" opacity=".988"/><path fill="#2c4f7b" d="M216.5 9q1.5 1-1 2-1.5-1 1-2" opacity=".992"/><path fill="#2c4f7b" d="m225.5 9 2.5 2.5v1h-1v-1l-2-2z" opacity=".992"/><path fill="#2c4f7b" d="M49.5 11q2.5 1 1 2-2.5-1-1-2" opacity=".992"/><path fill="#2c4f7b" d="M208.5 15q1.5 1-1 2-1.5-1 1-2" opacity=".992"/><path fill="#2c4f7b" d="m75.5 17 3.5 3.5-.5.5-3.5-3.5z" opacity=".992"/><path fill="#2c4f7b" d="M204.5 18q1.5 1-1 2-1.5-1 1-2" opacity=".992"/><path fill="#2c4f7b" d="M81.5 24q2.5 1 1 2-2.5-1-1-2" opacity=".992"/><path fill="#2c4f7b" d="M59.5 25q2.5 1 1 2-2.5-1-1-2" opacity=".992"/><path fill="#2c4f7b" d="M63.5 31q2.5 1 1 2-2.5-1-1-2" opacity=".992"/><path fill="#2c4f7b" d="m11.5 32 3.5 3.5-.5.5-3.5-3.5z" opacity=".992"/><path fill="#2c4f7b" d="M214.5 34q1.5 1-1 2-1.5-1 1-2" opacity=".992"/><path fill="#2c4f7b" d="m9.5 35 .5 2.5H9z" opacity=".992"/><path fill="#2c4f7b" d="m194.5 35 .5.5-2.5 2.5-.5-.5z" opacity=".992"/><path fill="#2c4f7b" d="m87.5 36 .5 2.5h-1z" opacity=".992"/><path fill="#2c4f7b" d="M17.5 39q2.5 1 1 2-2.5-1-1-2" opacity=".992"/><path fill="#2c4f7b" d="m203.5 40 .5.5L187.5 57l-.5-.5z" opacity=".992"/><path fill="#2c4f7b" d="m188.5 41 .5.5-6.5 6.5-.5-.5z" opacity=".992"/><path fill="#2c4f7b" d="M21.5 44q2.5 1 1 2-2.5-1-1-2" opacity=".992"/><path fill="#2c4f7b" d="M62.5 45q1.5 1-1 2-1.5-1 1-2" opacity=".992"/><path fill="#2c4f7b" d="m60.5 48 .5.5-3.5 3.5-.5-.5z" opacity=".992"/><path fill="#2c4f7b" d="m87.5 48 .5 2.5h-1z" opacity=".992"/><path fill="#2c4f7b" d="M27.5 51q2.5 1 1 2-2.5-1-1-2" opacity=".992"/><path fill="#2c4f7b" d="M36.5 57h4l.5.5-.5.5h-4z" opacity=".992"/><path fill="#2c4f7b" d="m165.5 63 .5.5L148.5 81l-.5-.5z" opacity=".992"/><path fill="#2c4f7b" d="m78.5 67 .5.5-2.5 2.5-.5-.5z" opacity=".992"/><path fill="#2c4f7b" d="M27.5 71q2.5 1 1 2-2.5-1-1-2" opacity=".992"/><path fill="#2c4f7b" d="M73.5 71q1.5 1-1 2-1.5-1 1-2" opacity=".992"/><path fill="#2c4f7b" d="m173.5 71 .5.5-4.5 4.5-.5-.5z" opacity=".992"/><path fill="#2c4f7b" d="m158.5 87 .5.5-5.5 5.5-.5-.5z" opacity=".992"/><path fill="#2c4f7b" d="m146.5 100 .5.5-7.5 7.5-.5-.5z" opacity=".992"/><path fill="#2c4f7b" d="m122.5 105 .5.5-8.5 8.5-.5-.5z" opacity=".992"/><path fill="#2c4f7b" d="m92.5 111 .5.5-2.5 2.5-.5-.5z" opacity=".992"/><path fill="#2c4f7b" d="m103.5 112 2.5 2.5-.5.5-2.5-2.5z" opacity=".992"/><path fill="#2c4f7b" d="m134.5 113 .5.5-4.5 4.5-.5-.5z" opacity=".992"/><path fill="#2c4f7b" d="m107.5 115 4.5 4.5-.5.5-4.5-4.5z" opacity=".992"/><path fill="#2c4f7b" d="m141.5 118 .5.5-3.5 3.5-.5-.5z" opacity=".992"/><path fill="#2c4f7b" d="m120.5 119 2.5 2.5-.5.5-2.5-2.5z" opacity=".992"/><path fill="#2c4f7b" d="m96.5 121 2.5 2.5-.5.5-2.5-2.5z" opacity=".992"/><path fill="#2c4f7b" d="m115.5 122 2.5 2.5-.5.5-2.5-2.5z" opacity=".992"/><path fill="#2c4f7b" d="m90.5 129 .5.5-16 16 2.5 2.5h1l15-15q1.3 2.3 2.5-.5l.5-3.5 11 10h1.5l1 3.5-2.5 2.5h-1L86 165.5l5 5-.5.5L75 155.5v-1l-2.5-2.5q-1.2 2.3-2.5-.5l1-1q-1.7-.7-.5-1.5l1.5-.5-3-2q.7-1.3 1.5.5h4l.5-.5-2-2 .5-.5 1 1z" opacity=".992"/><path fill="#2c4f7b" d="m123.5 129 2.5 2.5-.5.5-2.5-2.5z" opacity=".992"/><path fill="#2c4f7b" d="m107.5 131 5.5 5.5-.5.5-5.5-5.5z" opacity=".992"/><path fill="#2c4f7b" d="m134.5 145 3.5 3.5-.5.5-3.5-3.5z" opacity=".992"/><path fill="#2c4f7b" d="m113.5 146 1.5.5-9 9 .5.5h1l2-2 .5.5L96.5 168l-.5-.5 3-3v-1l2.5-2.5q2.6.7 1.5-2h-1.5l-4.5 4.5v1l-2.5 2.5-1.5-.5zm-8.5 11-2 2h2z" opacity=".992"/><path fill="#2c4f7b" d="m138.5 146 2.5 2.5-.5.5-2.5-2.5z" opacity=".992"/><path fill="#2c4f7b" d="m60.5 150 1.5.5-3.5 2.5-.5-.5z" opacity=".992"/><path fill="#2c4f7b" d="m53.5 156 .5.5-2.5 2.5-.5-.5z" opacity=".992"/><path fill="#2c4f7b" d="m140.5 156 3.5 3.5-.5.5-3.5-3.5z" opacity=".992"/><path fill="#2c4f7b" d="m150.5 157 3.5 3.5-.5.5-3.5-3.5z" opacity=".992"/><path fill="#2c4f7b" d="M149.5 159q2.5 1 1 2-2.5-1-1-2" opacity=".992"/><path fill="#2c4f7b" d="M47.5 162q1.5 1-1 2-1.5-1 1-2" opacity=".992"/><path fill="#2c4f7b" d="m43.5 166 .5.5L33.5 177l-.5-.5z" opacity=".992"/><path fill="#2c4f7b" d="m158.5 167 3.5 3.5-.5.5-3.5-3.5z" opacity=".992"/><path fill="#2c4f7b" d="m82.5 169 3.5 3.5-.5.5-3.5-3.5z" opacity=".992"/><path fill="#2c4f7b" d="m154.5 169 4.5 4.5-.5.5-4.5-4.5z" opacity=".992"/><path fill="#2c4f7b" d="M165.5 171q2.5 1 1 2-2.5-1-1-2" opacity=".992"/><path fill="#2c4f7b" d="m91.5 174 .5 3.5h-1z" opacity=".992"/><path fill="#2c4f7b" d="m78.5 175 .5.5-2.5 2.5-.5-.5z" opacity=".992"/><path fill="#2c4f7b" d="m187.5 175 .5.5-4.5 4.5-.5-.5z" opacity=".992"/><path fill="#2c4f7b" d="M30.5 179q1.5 1-1 2-1.5-1 1-2" opacity=".992"/><path fill="#2c4f7b" d="m89.5 181 .5.5-8.5 8.5-.5-.5z" opacity=".992"/><path fill="#2c4f7b" d="m168.5 182 4.5 4.5-.5.5-4.5-4.5z" opacity=".992"/><path fill="#2c4f7b" d="m217.5 184 3.5.5-3.5.5z" opacity=".992"/><path fill="#2c4f7b" d="m214.5 187 2.5.5-2.5.5z" opacity=".992"/><path fill="#2c4f7b" d="m76.5 188 .5.5L65.5 200l-.5-.5z" opacity=".992"/><path fill="#2c4f7b" d="M208.5 188q2.5 1 1 2-2.5-1-1-2" opacity=".992"/><path fill="#2c4f7b" d="M219.5 188q2.5 1 1 2-2.5-1-1-2" opacity=".992"/><path fill="#2c4f7b" d="m189.5 195 .5 3.5h-1z" opacity=".992"/><path fill="#2c4f7b" d="m56.5 198 .5.5L39.5 216l-.5-.5z" opacity=".992"/><path fill="#2c4f7b" d="m14.5 205 1.5 2.5q-1 1.5-2-1z" opacity=".992"/><path fill="#2c4f7b" d="m192.5 205 2.5 2.5-.5.5-2.5-2.5z" opacity=".992"/><path fill="#2c4f7b" d="m65.5 206 .5.5-4.5 4.5-.5-.5z" opacity=".992"/><path fill="#2c4f7b" d="M11 209q2.1-.5 3 1.5l2 4 3.5 3.5 4 2 7 6h2l2 1 3.5 3.5-.5.5h-11l-6-3-6.5-6.5v-1l-3-3-1-5q1.8-.9 1-3.5" opacity=".992"/><path fill="#2c4f7b" d="M195.5 209q2.5 1 1 2-2.5-1-1-2" opacity=".992"/><path fill="#2c4f7b" d="m17.5 210 7.5 7.5-.5.5-7.5-7.5z" opacity=".992"/><path fill="#2c4f7b" d="m55.5 210 .5.5-8.5 8.5-.5-.5z" opacity=".992"/><path fill="#2c4f7b" d="M189.5 210q2.5 1 1 2-2.5-1-1-2" opacity=".992"/><path fill="#2c4f7b" d="M193.5 211q2.5 1 1 2-2.5-1-1-2" opacity=".992"/><path fill="#2c4f7b" d="M230.5 211q1.5 1-1 2-1.5-1 1-2" opacity=".992"/><path fill="#2c4f7b" d="m225.5 212 .5.5-2.5 2.5-.5-.5z" opacity=".992"/><path fill="#2c4f7b" d="M226.5 216q1.5 1-1 2-1.5-1 1-2" opacity=".992"/><path fill="#2c4f7b" d="M27.5 219q2.5 1 1 2-2.5-1-1-2" opacity=".992"/><path fill="#2c4f7b" d="M39.5 220h5l.5.5-.5.5h-5z" opacity=".992"/><path fill="#2c4f7b" d="M200.5 220h15l.5.5-.5.5h-15z" opacity=".992"/><path fill="#2c4f7b" d="M223.5 220q1.5 1-1 2-1.5-1 1-2" opacity=".992"/><path fill="#2c4f7b" d="M30.5 221q2.5 1 1 2-2.5-1-1-2" opacity=".992"/><path fill="#2c4f7b" d="M211.5 225h6l.5.5-.5.5h-6z" opacity=".992"/><path fill="#234763" d="m35.5 0 2.5.5-2.5.5-2 2-.5-.5z" opacity=".106"/><path fill="#234763" d="M45.5 0h5l.5.5-.5.5h-5z" opacity=".106"/><path fill="#234763" d="M217.5 1q1.5 1-1 2-1.5-1 1-2" opacity=".106"/><path fill="#234763" d="M222.5 1q2.5 1 1 2-2.5-1-1-2" opacity=".106"/><path fill="#234763" d="m57.5 2 2.5.5-2.5.5z" opacity=".106"/><path fill="#234763" d="M61.5 3 65 4.5l-1.5.5L61 3.5z" opacity=".106"/><path fill="#234763" d="M214.5 3q1.5 1-1 2-1.5-1 1-2" opacity=".106"/><path fill="#234763" d="M225.5 3q2.5 1 1 2-2.5-1-1-2" opacity=".106"/><path fill="#234763" d="M34.5 4 36 6.5q-1 1.5-2-1z" opacity=".106"/><path fill="#234763" d="m66.5 5 5 2L73 8.5q-.8 1.2-1.5-.5l-5-2z" opacity=".106"/><path fill="#234763" d="m211.5 5 .5.5-3.5 3.5h-1l-3 3-.5-.5 3.5-3.5h1z" opacity=".106"/><path fill="#234763" d="m229.5 6 4 4 1.5.5-1 1v2l-2 4-1.5 1.5q-1.3-.8.5-1.5l2-4v-3l-4-4z" opacity=".106"/><path fill="#234763" d="M36.5 8q2.5 1 1 2-2.5-1-1-2" opacity=".106"/><path fill="#234763" d="m74.5 9 4 3H80q-1.1 2.7 1.5 2v1h-1l-4-4h-1q-2.5-1-1-2" opacity=".106"/><path fill="#234763" d="m202.5 12 .5.5-2.5 2.5-.5-.5z" opacity=".106"/><path fill="#234763" d="m40.5 13 2.5 3.5-.5.5-2.5-2.5z" opacity=".106"/><path fill="#234763" d="m198.5 15 .5.5-3.5 3.5-.5-.5z" opacity=".106"/><path fill="#234763" d="M44.5 19q2.5 1 1 2-2.8.7-1-2" opacity=".106"/><path fill="#234763" d="m85.5 19 4.5 4.5v1h-1v-1l-4-4z" opacity=".106"/><path fill="#234763" d="M193.5 20q1.5 1-1 2-1.5-1 1-2" opacity=".106"/><path fill="#234763" d="M6.5 22q4.5-1 5.5 1.5-.7 1.2-1.5-.5H6v1.5q-1 2.5-2 1z" opacity=".106"/><path fill="#234763" d="m227.5 23 .5 1.5q-1 2.5-2 1z" opacity=".106"/><path fill="#234763" d="M48.5 25q2.5 1 1 2-2.5-1-1-2" opacity=".106"/><path fill="#234763" d="m15.5 28 3.5 3.5-.5.5-3.5-3.5z" opacity=".106"/><path fill="#234763" d="m49.5 28 2.5 1.5q-.8 1.2-1.5-.5-2.4-.1-1-1" opacity=".106"/><path fill="#234763" d="m92.5 29 1.5 2.5h-1l-1-2z" opacity=".106"/><path fill="#234763" d="M52.5 31q2.5 1 1 2-2.5-1-1-2" opacity=".106"/><path fill="#234763" d="m2.5 32 .5.5v4H2v-4z" opacity=".106"/><path fill="#234763" d="m20.5 34 7.5 7.5-.5.5-7.5-7.5z" opacity=".106"/><path fill="#234763" d="m186 34 2 .5-4.5 4.5h-1v-1q2.6.7 1.5-2h2z" opacity=".106"/><path fill="#234763" d="M221.5 35q1.5 1-1 2-1.5-1 1-2" opacity=".106"/><path fill="#234763" d="m55.5 36 .5 2.5-1.5 2.5-.5-2.5z" opacity=".106"/><path fill="#234763" d="m180.5 40 .5.5L166.5 55l-.5-.5z" opacity=".106"/><path fill="#234763" d="m2.5 42 .5.5v9l1 2H3l-2-4 1-2q-2-1 0-2z" opacity=".106"/><path fill="#234763" d="m52 42 2 .5-5.5 5.5-4 2h-2v-1h2l2-1 5.5-4.5z" opacity=".106"/><path fill="#234763" d="m97.5 42 .5 2.5h-1z" opacity=".106"/><path fill="#234763" d="m28.5 43 7 7h5l.5.5-.5.5h-5L28 43.5z" opacity=".106"/><path fill="#234763" d="M211.5 44q1.5 1-1 2-1.5-1 1-2" opacity=".106"/><path fill="#234763" d="M208.5 46q1.5 1-1 2-2.2-.7-1.5 1.5h-1l1.5-2.5z" opacity=".106"/><path fill="#234763" d="m99.5 49 .5 2.5h-1z" opacity=".106"/><path fill="#234763" d="m203.5 50 .5 2h-2v2q-2.7-1.1-2 1.5h-1v-1z" opacity=".106"/><path fill="#234763" d="m337.5 52 .5.5-5.5 5.5-.5-.5z" opacity=".106"/><path fill="#234763" d="m164.5 55 .5.5L145.5 75l-1.5-.5 2-.5v-2h2q-1.1-2.7 1.5-2 3-1.1 2.5-4h1.5z" opacity=".106"/><path fill="#234763" d="m362.5 56 .5.5-2.5 2.5-.5-.5z" opacity=".106"/><path fill="#234763" d="M92.5 57q2 .5 1.5 3.5-1 2.5-2 1v-4z" opacity=".106"/><path fill="#234763" d="m195.5 59 .5.5-9.5 9.5-.5-.5z" opacity=".106"/><path fill="#234763" d="m102.5 60 5.5 6.5-.5.5-4.5-4.5-1-2z" opacity=".106"/><path fill="#234763" d="M6.5 62 8 65.5q-1 1.5-2-1z" opacity=".106"/><path fill="#234763" d="m94.5 62 2.5 4.5V68q-2.1.5-3-1.5l1-2h-2z" opacity=".106"/><path fill="#234763" d="M327.5 63q1.5 1-1 2-1.5-1 1-2" opacity=".106"/><path fill="#234763" d="m356.5 63 .5.5-5.5 5.5-.5-.5z" opacity=".106"/><path fill="#234763" d="m7.5 67 2.5 1.5 1 2-.5.5L7 67.5z" opacity=".106"/><path fill="#234763" d="M401.5 67h5l.5.5-.5.5h-5z" opacity=".106"/><path fill="#234763" d="m531.5 67 2.5.5-2.5.5z" opacity=".106"/><path fill="#234763" d="m109.5 68 6.5 6.5-.5.5-6.5-6.5z" opacity=".106"/><path fill="#234763" d="m413.5 68 2.5.5-2.5.5z" opacity=".106"/><path fill="#234763" d="M483.5 68h10l.5.5-.5.5h-10z" opacity=".106"/><path fill="#234763" d="m520.5 68 3.5.5-3.5.5z" opacity=".106"/><path fill="#234763" d="m626.5 68 2.5.5-2.5.5z" opacity=".106"/><path fill="#234763" d="M96.5 69q3-.5 3.5 1.5-1.8.7-.5 1.5h1L123 94.5q.8 2.3-1.5 1.5L106 80.5q2.3-1.2-.5-2.5l-1 1-5.5-5.5v-1l-3-3z" opacity=".106"/><path fill="#234763" d="M444.5 69h24l1.5 1.5v6l-.5.5-.5-.5V70h-24.5z" opacity=".106"/><path fill="#234763" d="M574 69h25.5l.5.5-.5.5H575v69.5l-.5.5-.5-.5z" opacity=".106"/><path fill="#234763" d="m477.5 70 .5.5-2.5 2.5-.5-.5z" opacity=".106"/><path fill="#234763" d="m514.5 70 1.5.5-2.5 1.5q-1.5-1 1-2" opacity=".106"/><path fill="#234763" d="m633.5 70 2.5 1.5q-.8 1.2-1.5-.5-2.4-.1-1-1" opacity=".106"/><path fill="#234763" d="m654.5 70 1.5.5-2.5 1.5q-1.5-1 1-2" opacity=".106"/><path fill="#234763" d="M605.5 72q1.5 1-1 2-1.5-1 1-2" opacity=".106"/><path fill="#234763" d="m182.5 73 .5.5-9.5 9.5-.5-.5z" opacity=".106"/><path fill="#234763" d="m318.5 73 .5.5-2.5 2.5-.5-.5z" opacity=".106"/><path fill="#234763" d="M380.5 73q1.5 1-1 2l-1.5-.5z" opacity=".106"/><path fill="#234763" d="M509.5 73q1.5 1-1 2-1.5-1 1-2" opacity=".106"/><path fill="#234763" d="m681.5 73 3.5 3.5-.5.5-3.5-3.5z" opacity=".106"/><path fill="#234763" d="m639.5 74 2.5 2.5-.5.5-2.5-2.5z" opacity=".106"/><path fill="#234763" d="m648.5 74 .5.5-3.5 3.5-.5-.5z" opacity=".106"/><path fill="#234763" d="m13.5 75 3.5 3.5v1h-1v-1l-3-3z" opacity=".106"/><path fill="#234763" d="m345.5 75 .5.5-4.5 4.5-.5-.5z" opacity=".106"/><path fill="#234763" d="m428.5 75 2.5 2.5-.5.5-2.5-2.5z" opacity=".106"/><path fill="#234763" d="m505.5 76 .5.5-3.5 3.5-.5-.5z" opacity=".106"/><path fill="#234763" d="m119.5 78 10 10h1l4-4 .5.5-4.5 4.5h-1L119 78.5z" opacity=".106"/><path fill="#234763" d="M642.5 78q2.5 1 1 2-2.5-1-1-2" opacity=".106"/><path fill="#234763" d="M313.5 79q1.5 1-1 2-1.5-1 1-2" opacity=".106"/><path fill="#234763" d="M560.5 79q2.5 1 1 2-2.5-1-1-2" opacity=".106"/><path fill="#234763" d="m18.5 80 3.5 3.5-.5.5-3.5-3.5z" opacity=".106"/><path fill="#234763" d="M371.5 82q1.5 1-1 2-1.5-1 1-2" opacity=".106"/><path fill="#234763" d="m337.5 84 .5.5-3.5 3.5-.5-.5z" opacity=".106"/><path fill="#234763" d="m398.5 84 1.5.5-2.5 1.5q-1.5-1 1-2" opacity=".106"/><path fill="#234763" d="M538.5 84q2.5 1 1 2-2.5-1-1-2" opacity=".106"/><path fill="#234763" d="m67.5 86 5.5 1.5q-1.2 2.7-2.5.5l-3-1z" opacity=".106"/><path fill="#234763" d="M524.5 86q1.5 1-1 2-1.5-1 1-2" opacity=".106"/><path fill="#234763" d="M412.5 87q2.5 1 1 2-2.5-1-1-2" opacity=".106"/><path fill="#234763" d="M29.5 88q2.5 1 1 2-2.5-1-1-2" opacity=".106"/><path fill="#234763" d="m74.5 88 5 3 6.5 6.5-.5 1.5-2-3-1 1-4.5-4.5-.5-1.5q-1.2 2.3-2.5-.5l-.5-1.5q-.7 1.7-1.5.5z" opacity=".106"/><path fill="#234763" d="M393.5 88q1.5 1-1 2-1.5-1 1-2" opacity=".106"/><path fill="#234763" d="m688.5 88 .5 3.5h-1z" opacity=".106"/><path fill="#234763" d="M542.5 89q2.5 1 1 2-2.5-1-1-2" opacity=".106"/><path fill="#234763" d="m521.5 90 .5 2.5q-1.7.7-.5 1.5h14l1-1 1 1h6l.5.5-.5.5H520v-2.5z" opacity=".106"/><path fill="#234763" d="M603.5 90q1.2.7-.5 1.5.8 2.3-1.5 1.5-.7 1.8-1.5.5z" opacity=".106"/><path fill="#234763" d="M616.5 90q2.5 1 1 2-2.5-1-1-2" opacity=".106"/><path fill="#234763" d="M647.5 90q1.5 1-1 2-1.5-1 1-2" opacity=".106"/><path fill="#234763" d="m661.5 90 2.5 2.5-.5.5-2.5-2.5z" opacity=".106"/><path fill="#234763" d="m165.5 91 .5.5-8.5 8.5-.5-.5z" opacity=".106"/><path fill="#234763" d="M332.5 91q2.5 1 1 2-2.5-1-1-2" opacity=".106"/><path fill="#234763" d="m38.5 92 5.5 1.5-3.5.5-2.5-1.5z" opacity=".106"/><path fill="#234763" d="M645.5 93q1.5 1-1 2-1.5-1 1-2" opacity=".106"/><path fill="#234763" d="m47.5 94 2.5.5-2.5.5z" opacity=".106"/><path fill="#234763" d="M391.5 94h24l.5.5-.5.5h-24z" opacity=".106"/><path fill="#234763" d="m473.5 94 .5.5-2.5 2.5-.5-.5z" opacity=".106"/><path fill="#234763" d="m52.5 95 2.5.5-2.5.5z" opacity=".106"/><path fill="#234763" d="m567.5 95 .5 2.5h-1z" opacity=".106"/><path fill="#234763" d="M58.5 96q.8 1.5 2.5 1l-.5 2-2.5-2.5z" opacity=".106"/><path fill="#234763" d="M336.5 96q2.5 1 1 2-2.5-1-1-2" opacity=".106"/><path fill="#234763" d="m62.5 98 4.5 3.5-.5.5-2-2-2.5-1.5z" opacity=".106"/><path fill="#234763" d="m87.5 99 4 5 1.5.5-1.5.5q-3-1.1-2.5-4-3.2 1-1.5-2" opacity=".106"/><path fill="#234763" d="m365.5 99 .5 2.5h-1z" opacity=".106"/><path fill="#234763" d="m439.5 100 .5.5v7h-1v-7z" opacity=".106"/><path fill="#234763" d="m469.5 100 .5.5v39q-1 2.5-2 1l1-1v-39z" opacity=".106"/><path fill="#234763" d="M68.5 102 81 114.5v1h-1v-1L69.5 104q-2.8.7-1-2" opacity=".106"/><path fill="#234763" d="m153.5 104 .5.5-3 3 .5.5q2.3-.7 1.5 1.5l11 11-.5.5-13.5-13.5z" opacity=".106"/><path fill="#234763" d="m365.5 107 .5 2.5h-1z" opacity=".106"/><path fill="#234763" d="m619.5 108 .5.5v6h-1v-6z" opacity=".106"/><path fill="#234763" d="M346.5 109q2.5 1 1 2-2.5-1-1-2" opacity=".106"/><path fill="#234763" d="M391.5 110h46l.5.5-.5.5h-46z" opacity=".106"/><path fill="#234763" d="m493.5 110 1.5 2.5h-1l-1-2z" opacity=".106"/><path fill="#234763" d="M520.5 110h47l.5.5-.5.5h-47z" opacity=".106"/><path fill="#234763" d="m318.5 111 2.5 2.5-.5.5-2.5-2.5z" opacity=".106"/><path fill="#234763" d="m350.5 114 2.5 2.5-.5.5-2.5-2.5z" opacity=".106"/><path fill="#234763" d="M392.5 115q2.5 1 1 2-2.5-1-1-2" opacity=".106"/><path fill="#234763" d="M521.5 115q2.5 1 1 2-2.5-1-1-2" opacity=".106"/><path fill="#234763" d="m143.5 116 1.5 2.5q-1 1.5-2-1z" opacity=".106"/><path fill="#234763" d="m146.5 116 11.5 11.5-1.5 1.5q-1.3-.8.5-1.5l-7.5-7.5q-2.6.7-1.5-2h-2z" opacity=".106"/><path fill="#234763" d="M322.5 116q2.5 1 1 2-2.5-1-1-2" opacity=".106"/><path fill="#234763" d="m619.5 117 .5.5v22h-1v-22z" opacity=".106"/><path fill="#234763" d="m83.5 119 1.5 1.5L69.5 136l-.5-.5 14-14z" opacity=".106"/><path fill="#234763" d="m430.5 120 1.5 2.5h-1l-1-2z" opacity=".106"/><path fill="#234763" d="m555.5 120 1.5.5-2.5 1.5q-1.5-1 1-2" opacity=".106"/><path fill="#234763" d="M404.5 122q3.8-1 2.5 2h-1.5q-2.5-1-1-2" opacity=".106"/><path fill="#234763" d="m534.5 122 1 1 2.5.5-2.5.5q-2.5-1-1-2" opacity=".106"/><path fill="#234763" d="M546.5 122q1.5 1-1 2l-2.5-.5 2.5-.5z" opacity=".106"/><path fill="#234763" d="m548.5 122 2.5.5-2.5.5z" opacity=".106"/><path fill="#234763" d="m168.5 124 14 14h1.5v2q2.7-1.1 2 1.5l-.5.5-17.5-17.5z" opacity=".106"/><path fill="#234763" d="M358.5 124q2.5 1 1 2-2.5-1-1-2" opacity=".106"/><path fill="#234763" d="M330.5 126q2.5 1 1 2-2.5-1-1-2" opacity=".106"/><path fill="#234763" d="M362.5 129q2.5 1 1 2-2.5-1-1-2" opacity=".106"/><path fill="#234763" d="M503.5 129q2.5 1 1 2-2.8.7-1-2" opacity=".106"/><path fill="#234763" d="m162.5 131 4.5 4.5-.5.5-4.5-4.5z" opacity=".106"/><path fill="#234763" d="m334.5 131 2.5 2.5-.5.5q-.7-1.5-2.5-1z" opacity=".106"/><path fill="#234763" d="M378.5 132q2.5 1 1 2-2.5-1-1-2" opacity=".106"/><path fill="#234763" d="M507.5 132q2.5 1 1 2-2.5-1-1-2" opacity=".106"/><path fill="#234763" d="m365.5 133 2.5 2.5-.5.5-2.5-2.5z" opacity=".106"/><path fill="#234763" d="M381.5 134q2.5 1 1 2-2.5-1-1-2" opacity=".106"/><path fill="#234763" d="M435.5 134q1.2.7-.5 1.5l-.5 1.5-.5-1.5z" opacity=".106"/><path fill="#234763" d="m338.5 136 2.5 2.5v1h-1q.7-2.6-2-1.5z" opacity=".106"/><path fill="#234763" d="m513.5 136 2.5 1.5-1.5.5q-2.5-1-1-2" opacity=".106"/><path fill="#234763" d="M560.5 136q1.5 1-1 2-1.5-1 1-2" opacity=".106"/><path fill="#234763" d="m66.5 137 .5 2h-1.5l-6 5q-1.5-1 1-2h1z" opacity=".106"/><path fill="#234763" d="m168.5 137 2.5 2.5-.5.5-2.5-2.5z" opacity=".106"/><path fill="#234763" d="m368.5 137 1.5 2.5h-1l-1-2z" opacity=".106"/><path fill="#234763" d="m280.5 139 .5 2-2-.5z" opacity=".106"/><path fill="#234763" d="M520.5 139q2.3-.7 1.5 1.5l-.5.5q-2.5-1-1-2" opacity=".106"/><path fill="#234763" d="m552.5 139 2.5 1.5q-.8 1.2-1.5-.5-2.4-.1-1-1" opacity=".106"/><path fill="#234763" d="M599.5 139q2.5 1 1 2-2.8.7-1-2" opacity=".106"/><path fill="#234763" d="M401.5 141h13l.5.5-.5.5h-13z" opacity=".106"/><path fill="#234763" d="M530.5 141h13l.5.5-.5.5h-5q-.5 1.5-3 1-.5-1.5-3-1l-1 1q-2.5-1-1-2" opacity=".106"/><path fill="#234763" d="m174.5 143 2.5 1.5q-.8 1.2-1.5-.5-2.4-.1-1-1" opacity=".106"/><path fill="#234763" d="M55.5 145q1.5 1-1 2h-1l-16 16h-1v-1H38v-2h2q-1.1-2.7 1.5-2l12-12z" opacity=".106"/><path fill="#234763" d="m178.5 146 7.5 7.5-.5.5-7.5-7.5z" opacity=".106"/><path fill="#234763" d="m191.5 146 6.5 6.5-.5.5-6.5-6.5z" opacity=".106"/><path fill="#234763" d="m118.5 157 2.5.5-2.5.5-10.5 10.5q.8 2.3-1.5 1.5-3 1.1-2.5 4l-2-.5z" opacity=".106"/><path fill="#234763" d="m203.5 157 8 8 1.5.5-1.5.5-8.5-8.5z" opacity=".106"/><path fill="#234763" d="m191.5 158 5.5 5.5-.5.5-5.5-5.5z" opacity=".106"/><path fill="#234763" d="M122.5 159h1l11.5 11.5-.5.5-11-11q-2.4-.1-1-1" opacity=".106"/><path fill="#234763" d="m199.5 165 3 2h5l.5.5-2.5 1.5h-5q-1.3-.8.5-1.5l-2-2z" opacity=".106"/><path fill="#234763" d="m214.5 166 2.5.5-2.5.5z" opacity=".106"/><path fill="#234763" d="m221.5 167 2.5 2.5-.5.5q-.7-1.5-2.5-1z" opacity=".106"/><path fill="#234763" d="m227.5 171 2.5 2.5-.5.5-2.5-2.5z" opacity=".106"/><path fill="#234763" d="m26.5 172 .5.5-2.5 2.5-.5-.5z" opacity=".106"/><path fill="#234763" d="m231.5 174 2.5 2.5-.5.5-2.5-2.5z" opacity=".106"/><path fill="#234763" d="m140.5 175 4.5 4.5-.5.5-4.5-4.5z" opacity=".106"/><path fill="#234763" d="m20.5 178 .5.5L6.5 193l-.5-.5 2-2q-.7-2.2 1.5-1.5z" opacity=".106"/><path fill="#234763" d="m99.5 180 .5 1.5-2.5 2.5-.5-.5z" opacity=".106"/><path fill="#234763" d="M236.5 180q2.5 1 1 2-2.5-1-1-2" opacity=".106"/><path fill="#234763" d="M238.5 183q2.5 1 1 2-2.5-1-1-2" opacity=".106"/><path fill="#234763" d="m150.5 184 13.5 13.5-.5.5-10-10H152q1-3-2-2z" opacity=".106"/><path fill="#234763" d="m96.5 185 .5.5-7 7v1.5q-2.7-1.1-2 1.5h-1v-1z" opacity=".106"/><path fill="#234763" d="m214.5 191 2.5 1.5-1.5.5q-2.5-1-1-2" opacity=".106"/><path fill="#234763" d="M5.5 194q1.5 1-1 2-1.5-1 1-2" opacity=".106"/><path fill="#234763" d="M3.5 197q1.5 1-1 2-1.5-1 1-2" opacity=".106"/><path fill="#234763" d="m83.5 199 .5.5-2.5 2.5-.5-.5z" opacity=".106"/><path fill="#234763" d="m164.5 199 1.5 2.5q-1 1.5-2-1z" opacity=".106"/><path fill="#234763" d="m220.5 201 2.5 4.5v4l-2.5 2.5-.5-.5 1-1q-1.8-.7-.5-1.5.8 1.8 1.5.5v-2l-3-4z" opacity=".106"/><path fill="#234763" d="m244.5 201 .5.5v5h-1v-5z" opacity=".106"/><path fill="#234763" d="m.5 204 .5 3.5H0z" opacity=".106"/><path fill="#234763" d="m166.5 204 1.5 2.5q-1 2.5-2 1 2-1 0-2z" opacity=".106"/><path fill="#234763" d="m77.5 206 .5.5-8 8q.8 2.3-1.5 1.5l-.5-.5z" opacity=".106"/><path fill="#234763" d="m600.5 209 2.5 3.5q-.8 1.2-1.5-.5H600z" opacity=".106"/><path fill="#234763" d="m197.5 210 4 6h12l2-1 1 1 2-2 .5.5-2.5 2.5h-15l-4.5-5.5z" opacity=".106"/><path fill="#234763" d="m243.5 211 .5 2.5h-1z" opacity=".106"/><path fill="#234763" d="M485.5 211q3.8-.7 4.5 1.5-.8 1.2-1.5-.5-4.2-.7-5 2l-.5-.5z" opacity=".106"/><path fill="#234763" d="M283.5 212h5l.5.5-.5.5H283l-.5 4-.5-3.5z" opacity=".106"/><path fill="#234763" d="M438.5 212h5l.5.5-.5.5H438v23.5l-.5.5-.5-.5v-23z" opacity=".106"/><path fill="#234763" d="M495.5 212q5.3-1.2 6.5 1.5v11l.5.5 4-4 .5.5-5.5 5.5-.5-.5V213h-5.5z" opacity=".106"/><path fill="#234763" d="m.5 213 .5 2.5H0z" opacity=".106"/><path fill="#234763" d="M405.5 213q2.3-.7 1.5 1.5l2 4-2 .5v-4h-3.5v-1z" opacity=".106"/><path fill="#234763" d="M483.5 216q2.5 1 1 2-2.5-1-1-2" opacity=".106"/><path fill="#234763" d="m595.5 216 2.5 1.5q-.8 1.2-1.5-.5-2.4-.1-1-1" opacity=".106"/><path fill="#234763" d="m602.5 216 .5 2-2-.5z" opacity=".106"/><path fill="#234763" d="m400.5 217 .5 2.5h-1z" opacity=".106"/><path fill="#234763" d="M329.5 218q2.3-.7 1.5 1.5l-.5.5q-2.5-1-1-2" opacity=".106"/><path fill="#234763" d="M390.5 218q2.5 1 1 2-2.5-1-1-2" opacity=".106"/><path fill="#234763" d="M456.5 218q2.8 1.3.5 2.5v1l-6 6-.5 1.5-.5-1.5 6-6z" opacity=".106"/><path fill="#234763" d="M460.5 218h2l4.5 2.5q-1 2.5-2 1V220h-3.5q-2.5-1-1-2" opacity=".106"/><path fill="#234763" d="M524.5 218q1.5 1-1 2l-1.5-.5z" opacity=".106"/><path fill="#234763" d="m568.5 218 1 1q1-2 2 0 2.5.5 3-1l1 1q.7-1.7 1.5-.5v1.5h-3.5q-1 2-2 0-5.1 1.3-3-2" opacity=".106"/><path fill="#234763" d="M590.5 218q2.5 1 1 2l-3.5-.5z" opacity=".106"/><path fill="#234763" d="m665.5 218 .5 2-2-.5z" opacity=".106"/><path fill="#234763" d="m65.5 219 .5.5-6.5 6.5-.5-.5z" opacity=".106"/><path fill="#234763" d="m296.5 219 3.5.5-3.5.5z" opacity=".106"/><path fill="#234763" d="M301.5 219q2.3-.7 1.5 1.5l-5 5v1.5q-2.7-1.1-2 1.5l2 2-.5.5-2.5-2.5v-1l7-7q-1.8-.7-.5-1.5" opacity=".106"/><path fill="#234763" d="m336.5 219 3.5.5-3.5.5z" opacity=".106"/><path fill="#234763" d="m365.5 219 2.5.5-2.5.5z" opacity=".106"/><path fill="#234763" d="M411.5 219q2.3.8 1.5 4.5l-2.5 2.5-1-1-2 1-.5-2h5v-3.5q-1.8-.7-.5-1.5" opacity=".106"/><path fill="#234763" d="m451.5 219 2.5.5-2.5.5z" opacity=".106"/><path fill="#234763" d="m484.5 219 1.5.5-3 2q1.8.8.5 1.5l-1.5-1.5z" opacity=".106"/><path fill="#234763" d="M508.5 219h6.5v3h-1.5l-4 4-.5-.5 5-5-.5-.5h-5z" opacity=".106"/><path fill="#234763" d="m527.5 219 2.5.5-2.5.5z" opacity=".106"/><path fill="#234763" d="m547.5 219 2.5.5-2.5.5z" opacity=".106"/><path fill="#234763" d="M559.5 219q1.2.7-.5 1.5v18q0 1 4.5.5.8-1.8 1.5-.5.5 1.9-.5 1.5h-5l-1.5-1.5q1-4-1-5l1-1v-11q-1.7-.7-.5-1.5z" opacity=".106"/><path fill="#234763" d="M578.5 219q2.5 1 1 2-2.5-1-1-2" opacity=".106"/><path fill="#234763" d="M593.5 219q2.5 1 1 2-2.5-1-1-2" opacity=".106"/><path fill="#234763" d="M597.5 219q4.5-1 5.5 1.5v17l1 1q-1.2 2.8-6.5 1.5l-1.5-1.5v-18zm-.5 1v19h6q1-1-1-1v-18z" opacity=".106"/><path fill="#234763" d="m611.5 219 2.5.5-2.5.5z" opacity=".106"/><path fill="#234763" d="m617.5 219 2.5.5-2.5.5z" opacity=".106"/><path fill="#234763" d="m682.5 219 2.5.5-2.5.5z" opacity=".106"/><path fill="#234763" d="m294.5 220 .5 1.5-2.5 2.5-.5-.5z" opacity=".106"/><path fill="#234763" d="M307.5 220q1.5 1-1 2-1.5-1 1-2" opacity=".106"/><path fill="#234763" d="m319.5 220 2.5 2.5-.5.5-2.5-2.5z" opacity=".106"/><path fill="#234763" d="m345.5 220 .5.5-2.5 2.5-.5-.5z" opacity=".106"/><path fill="#234763" d="m357.5 220 2.5 2.5-.5.5-2.5-2.5z" opacity=".106"/><path fill="#234763" d="m370 220 2 .5q-1 2.5-2 1z" opacity=".106"/><path fill="#234763" d="m393.5 220 2.5 2.5-.5.5-2.5-2.5z" opacity=".106"/><path fill="#234763" d="m418.5 220 .5.5-2.5 2.5-.5-2q1.8.5 2.5-1" opacity=".106"/><path fill="#234763" d="m459.5 220 .5 2.5h-1z" opacity=".106"/><path fill="#234763" d="M476.5 220q2.5 1 1 2-2.5-1-1-2" opacity=".106"/><path fill="#234763" d="m531.5 220 1.5 2.5h-1l-1-2z" opacity=".106"/><path fill="#234763" d="m551.5 220 2.5 2.5-.5.5-2.5-2.5z" opacity=".106"/><path fill="#234763" d="m640.5 220 .5.5-2.5 2.5-.5-.5z" opacity=".106"/><path fill="#234763" d="M652.5 220q2.5 1 1 2-2.5-1-1-2" opacity=".106"/><path fill="#234763" d="m661.5 220 .5.5-3.5 3.5-.5-.5z" opacity=".106"/><path fill="#234763" d="m687 220 2 .5q-1 2.5-2 1z" opacity=".106"/><path fill="#234763" d="M697.5 220q2.5 1 1 2-2.5-1-1-2" opacity=".106"/><path fill="#234763" d="m536.5 221 1 1q.8-1.8 1.5-.5l-2.5 3.5-.5-1.5 1-1q-1.7-.7-.5-1.5" opacity=".106"/><path fill="#234763" d="m176.5 222 6.5 6.5-.5.5-6.5-6.5z" opacity=".106"/><path fill="#234763" d="m239.5 222 .5.5-2 2-.5 1.5-.5-1.5z" opacity=".106"/><path fill="#234763" d="m289.5 222 .5 2.5 1 1q-1 2.5-2 1v-4z" opacity=".106"/><path fill="#234763" d="M517.5 222q1.2.7-.5 1.5l-.5 1.5-.5-1.5z" opacity=".106"/><path fill="#234763" d="m655.5 222 .5 3q-1.7-.5-2.5 1l-.5-.5 2-2z" opacity=".106"/><path fill="#234763" d="M312.5 223q3.8-.7 4.5 1.5l1 3.5h-7.5l-.5-.5.5-.5h5.5q.5-2.1-1.5-3-3.5-.5-4 2l-.5-.5z" opacity=".106"/><path fill="#234763" d="M323.5 223q1.5 1-1 2-1.5-1 1-2" opacity=".106"/><path fill="#234763" d="M350.5 223q3.3-1.1 2.5 1.5-.8 1.2-1.5-.5l-2 1q-1.5-1 1-2" opacity=".106"/><path fill="#234763" d="M423.5 223h2l2.5 2.5-.5.5-2-2q-3 .5-2-1" opacity=".106"/><path fill="#234763" d="M432.5 223q2.5 1 1 2-2.5-1-1-2" opacity=".106"/><path fill="#234763" d="m446.5 223 .5 1.5-2.5 2.5h-1v-1l2.5-1.5z" opacity=".106"/><path fill="#234763" d="m524.5 223 2.5.5-2.5.5z" opacity=".106"/><path fill="#234763" d="m544.5 223 2.5.5-3 1q1.7.8.5 1.5-3-1.5 0-3" opacity=".106"/><path fill="#234763" d="m613.5 223 3.5.5-3.5.5z" opacity=".106"/><path fill="#234763" d="m373.5 224 2 1q1.2-2.3 2.5.5l-.5 1.5-4-2-2 3-.5-1.5z" opacity=".106"/><path fill="#234763" d="M388.5 224q2.5 1 1 2-2.5-1-1-2" opacity=".106"/><path fill="#234763" d="m398.5 224 2.5.5-2.5.5z" opacity=".106"/><path fill="#234763" d="M468.5 224q1 2 2 0l2.5 1.5q1 3.8-2 2.5 1.1-2.7-1.5-2l-1-1q-.7 1.8-1.5.5z" opacity=".106"/><path fill="#234763" d="M522.5 224q.8 1.5 2.5 1 1.1 2.7-1.5 2-2.4-.9-1-3" opacity=".106"/><path fill="#234763" d="m528.5 224 2 1q.7-1.7 1.5-.5.8 2.3-1.5 1.5l-2.5-1.5z" opacity=".106"/><path fill="#234763" d="m571.5 224 .5 2-3-.5z" opacity=".106"/><path fill="#234763" d="M573.5 224q2.3-.7 1.5 1.5l-.5.5q-2.5-1-1-2" opacity=".106"/><path fill="#234763" d="m618.5 224 2 1q.7-1.7 1.5-.5-1.2 2.7-2.5.5-2.4-.1-1-1" opacity=".106"/><path fill="#234763" d="m644.5 224 .5.5-2 2-.5 1.5-.5-1.5z" opacity=".106"/><path fill="#234763" d="m665.5 224 .5 2-2-.5z" opacity=".106"/><path fill="#234763" d="M690.5 224q1.5 1-1 2-1.5-1 1-2" opacity=".106"/><path fill="#234763" d="M702.5 224q2.5 1 1 2-2.5-.5-3 1l-.5-.5z" opacity=".106"/><path fill="#234763" d="m705.5 224 1.5 2.5q-1 1.5-2-1z" opacity=".106"/><path fill="#234763" d="M4.5 225q2.5 1 1 2-2.5-1-1-2" opacity=".106"/><path fill="#234763" d="M354.5 225q2 .9 1.5 3h-5.5l-.5-.5 2.5-.5z" opacity=".106"/><path fill="#234763" d="M413.5 225q2.3-.7 1.5 1.5-1 2.5-2 1l1-1q-1.7-.8-.5-1.5" opacity=".106"/><path fill="#234763" d="M421.5 225v2h6l.5.5-.5.5H420q-.5-2.1 1.5-3" opacity=".106"/><path fill="#234763" d="M548.5 225q2 .9 1.5 3h-8.5l-.5-.5.5-.5h7l.5-.5q-1.7-.8-.5-1.5" opacity=".106"/><path fill="#234763" d="m566.5 225 1.5.5-2 .5-.5 2-.5-1.5z" opacity=".106"/><path fill="#234763" d="m614.5 225 .5 2-2-.5z" opacity=".106"/><path fill="#234763" d="M650.5 225q2.5 1 1 2-2.5-1-1-2" opacity=".106"/><path fill="#234763" d="m323.5 226 .5 3.5h-1z" opacity=".106"/><path fill="#234763" d="m516.5 226 2.5 4.5q-1 1.5-2-1l-1-2z" opacity=".106"/><path fill="#234763" d="m555.5 226 .5.5v5.5l-2-.5 1-1v-4z" opacity=".106"/><path fill="#234763" d="m303.5 227 .5.5v5h-1v-5z" opacity=".106"/><path fill="#234763" d="m333 227 2 .5q-1 2.5-2 1z" opacity=".106"/><path fill="#234763" d="m535.5 227 .5.5v4q-1 1.5-2-1 2-1 0-2z" opacity=".106"/><path fill="#234763" d="m6.5 228 5.5 5.5-.5.5-5.5-5.5z" opacity=".106"/><path fill="#234763" d="m57.5 228 .5.5-3.5 3.5-.5-.5z" opacity=".106"/><path fill="#234763" d="m184.5 229 4.5 3.5q-.8 1.2-1.5-.5h-1l-2.5-2.5z" opacity=".106"/><path fill="#234763" d="m232.5 229 1.5.5-2 .5q1.1 2.7-1.5 2-.7 1.7-1.5.5z" opacity=".106"/><path fill="#234763" d="M508.5 229q2.5 1 1 2-2.5-1-1-2" opacity=".106"/><path fill="#234763" d="M582.5 229q3.3-1.1 2.5 1.5l-1.5 2.5-.5-2.5-1-1z" opacity=".106"/><path fill="#234763" d="m361.5 230 .5 2-2-.5z" opacity=".106"/><path fill="#234763" d="m452.5 230 1.5 2.5q-1 1.5-2-1z" opacity=".106"/><path fill="#234763" d="m609.5 230 .5 4q-2.6-.7-3.5 1-1.5-1 1-2h1.5z" opacity=".106"/><path fill="#234763" d="M290.5 231q2.5 1 1 2l-2 1-.5-1.5z" opacity=".106"/><path fill="#234763" d="m309.5 231 2.5.5-2.5.5z" opacity=".106"/><path fill="#234763" d="m320.5 231 2.5.5-3 1 2 1-1.5.5-1-1q-.7 1.8-1.5.5z" opacity=".106"/><path fill="#234763" d="m349.5 231 1.5 1.5q-1.7.7-.5 1.5h4l.5-.5q-1.7-.7-.5-1.5l2 1 1-2 2.5 3.5-.5.5-2-2-1 1-2 1h-4l-1.5-1.5 1-1q-1.8-.8-.5-1.5" opacity=".106"/><path fill="#234763" d="m420.5 231 1.5 2.5q-1 1.5-2-1z" opacity=".106"/><path fill="#234763" d="M426.5 231h1l2 2 1-1 3.5 3.5-1.5 2.5q-1.3-.8.5-1.5l-1.5-2.5h-2l-2-1q-2.5-1-1-2" opacity=".106"/><path fill="#234763" d="M445.5 231q1.5 1-1 2-1.5-1 1-2" opacity=".106"/><path fill="#234763" d="m502.5 231 2.5 2.5-.5.5q-1.3-2.2-2.5.5 1 4.5-1.5 5.5h-5l-.5-.5.5-.5h5.5v-6.5z" opacity=".106"/><path fill="#234763" d="m521.5 231 3.5.5-2.5 1.5q-2.5-1-1-2" opacity=".106"/><path fill="#234763" d="m542.5 231 2.5.5-2.5.5z" opacity=".106"/><path fill="#234763" d="m564.5 231 .5 2.5h-1z" opacity=".106"/><path fill="#234763" d="m611 231 4 .5-2 .5v3h-1.5q-1.3-.8.5-1.5l-1-1z" opacity=".106"/><path fill="#234763" d="m663.5 231 1.5 2.5q-1 1.5-2-1z" opacity=".106"/><path fill="#234763" d="m407.5 232 .5 2.5h-1z" opacity=".106"/><path fill="#234763" d="M526.5 232q3 1.5 0 3z" opacity=".106"/><path fill="#234763" d="m533.5 232 .5 2.5h-1z" opacity=".106"/><path fill="#234763" d="M546 232q2.1-.5 3 1.5v1.5h-4.5v-1q2.6.7 1.5-2" opacity=".106"/><path fill="#234763" d="M550 232q2.5-.5 3.5 2 .7-1.7 1.5-.5.8 3.8-1.5 4.5-1.3-.8.5-1.5l-1.5-2.5q-3.7 1-2.5-2" opacity=".106"/><path fill="#234763" d="M616.5 232q3 1.5 0 3l-2.5-1.5q.7-1.3 1.5.5l1.5-.5q-1.7-.7-.5-1.5" opacity=".106"/><path fill="#234763" d="m623.5 232 .5 2.5h-1z" opacity=".106"/><path fill="#234763" d="M651.5 232h1l2 2h1.5l-.5 3-3-4h-1l-2 2h-4v-1q5 1 6-2" opacity=".106"/><path fill="#234763" d="m671.5 232 .5.5-2.5 2.5-1.5-.5z" opacity=".106"/><path fill="#234763" d="m51.5 233 .5.5-2.5 2.5-2 1q-1.5-1 1-2h1z" opacity=".106"/><path fill="#234763" d="m190.5 233 2.5 1.5q-.8 1.2-1.5-.5-2.4-.1-1-1" opacity=".106"/><path fill="#234763" d="m446.5 233 2.5 2.5-.5.5-2.5-2.5z" opacity=".106"/><path fill="#234763" d="m511.5 233 2.5 2.5-.5.5-2.5-2.5z" opacity=".106"/><path fill="#234763" d="M517.5 233q1.5 1-1 2-1.5-1 1-2" opacity=".106"/><path fill="#234763" d="M627.5 233q1.5 1-1 2-1.5-1 1-2" opacity=".106"/><path fill="#234763" d="M631.5 233q2.5 1 1 2-2.5-1-1-2" opacity=".106"/><path fill="#234763" d="m677.5 233 .5 1.5-4.5 4.5-.5-.5 4-4z" opacity=".106"/><path fill="#234763" d="m13.5 234 4 3 2.5.5-2.5.5-4.5-3.5z" opacity=".106"/><path fill="#234763" d="m410.5 234 2.5 1.5-.5 1.5-.5-2-2-.5z" opacity=".106"/><path fill="#234763" d="m425.5 234 2.5.5-2.5.5z" opacity=".106"/><path fill="#234763" d="m443.5 234 .5.5v5.5h-5.5l-1.5-1.5q.7-1.3 1.5.5h4.5z" opacity=".106"/><path fill="#234763" d="m454.5 234 3.5 3.5-.5.5-3.5-3.5z" opacity=".106"/><path fill="#234763" d="m194.5 235 2.5.5-2.5.5z" opacity=".106"/><path fill="#234763" d="m322.5 235 .5 1.5q-1 2.5-2 1z" opacity=".106"/><path fill="#234763" d="M505.5 235q2.5 1 1 2-2.5-1-1-2" opacity=".106"/><path fill="#234763" d="m658.5 235 2.5 2.5-.5.5-2.5-2.5z" opacity=".106"/><path fill="#234763" d="M198 236q3-1 2 2-3 1-2-2" opacity=".106"/><path fill="#234763" d="m219 236 2 .5q-1 2.5-2 1z" opacity=".106"/><path fill="#234763" d="M294.5 236q2.5 1 1 2-2.8.7-1-2" opacity=".106"/><path fill="#234763" d="m301.5 236 2.5 2.5-1.5 1.5h-5l-.5-.5 6-1-2-2z" opacity=".106"/><path fill="#234763" d="M416.5 236q2.5 1 1 2l-1-1q-.8 1.8-1.5.5z" opacity=".106"/><path fill="#234763" d="m532.5 236 .5.5-2.5 2.5-.5-.5z" opacity=".106"/><path fill="#234763" d="M633.5 236q1.5 1-1 2-1.5-1 1-2" opacity=".106"/><path fill="#234763" d="M638.5 236q2.5 1 1 2-2.5-1-1-2" opacity=".106"/><path fill="#234763" d="m44.5 237 1.5.5-3.5 1.5v-1z" opacity=".106"/><path fill="#234763" d="M201.5 237h9l.5.5-.5.5h-9z" opacity=".106"/><path fill="#234763" d="M212.5 237h5l.5.5-.5.5h-5z" opacity=".106"/><path fill="#234763" d="m344.5 237 2.5 1.5q-.8 1.2-1.5-.5-2.4-.1-1-1" opacity=".106"/><path fill="#234763" d="m402.5 237 3.5 2.5-1.5.5-2.5-2.5z" opacity=".106"/><path fill="#234763" d="m449.5 237 2 2h6l.5.5-.5.5h-6q-.7-1.5-2.5-1z" opacity=".106"/><path fill="#234763" d="M514.5 237q1 2 2 0l2.5 1.5q-.8 1.2-1.5-.5h-1l-2 2h-6v-1h6l.5-.5q-1.8-.8-.5-1.5" opacity=".106"/><path fill="#234763" d="m538.5 237 2.5 1.5q-.8 1.2-1.5-.5-2.4-.1-1-1" opacity=".106"/><path fill="#234763" d="M289.5 238q1.5 1-1 2h-5l-.5-.5.5-.5h5z" opacity=".106"/><path fill="#234763" d="m364.5 238 1 1h5l.5.5-.5.5h-5q-2.5-1-1-2" opacity=".106"/><path fill="#234763" d="M383.5 238q1.5 1-1 2h-4l-.5-.5.5-.5h4z" opacity=".106"/><path fill="#234763" d="M412.5 238q1.5 1-1 2l-1.5-.5z" opacity=".106"/><path fill="#234763" d="m472.5 238 1 1h5l.5.5-.5.5h-5q-2.5-1-1-2" opacity=".106"/><path fill="#234763" d="m483.5 238 1 1h5l.5.5-.5.5h-5q-2.5-1-1-2" opacity=".106"/><path fill="#234763" d="m626.5 238 1 1 3.5.5-3.5.5q-2.5-1-1-2" opacity=".106"/><path fill="#234763" d="M23.5 239h5l.5.5-.5.5h-5z" opacity=".106"/><path fill="#234763" d="M35.5 239h5l.5.5-.5.5h-5z" opacity=".106"/><path fill="#234763" d="M310.5 239h7l.5.5-.5.5h-7z" opacity=".106"/><path fill="#234763" d="M327.5 239h5l.5.5-.5.5h-5z" opacity=".106"/><path fill="#234763" d="M348.5 239h7l.5.5-.5.5h-7z" opacity=".106"/><path fill="#234763" d="M390.5 239h5l.5.5-.5.5h-5z" opacity=".106"/><path fill="#234763" d="m426.5 239 2.5.5-2.5.5z" opacity=".106"/><path fill="#234763" d="M460.5 239h4l.5.5-.5.5h-4z" opacity=".106"/><path fill="#234763" d="M542.5 239h7l.5.5-.5.5h-7z" opacity=".106"/><path fill="#234763" d="M580.5 239h6l.5.5-.5.5h-6z" opacity=".106"/><path fill="#234763" d="m610.5 239 3.5.5-3.5.5z" opacity=".106"/><path fill="#234763" d="m615.5 239 2.5.5-2.5.5z" opacity=".106"/><path fill="#234763" d="M645.5 239h5l.5.5-.5.5h-5z" opacity=".106"/><path fill="#234763" d="m663.5 239 3.5.5-3.5.5z" opacity=".106"/><path fill="#234763" d="M682.5 239h5l.5.5-.5.5h-5z" opacity=".106"/><path fill="#234763" d="M695.5 239h4l.5.5-.5.5h-4z" opacity=".106"/><path fill="#234763" d="M707.5 239h5l.5.5-.5.5h-5z" opacity=".106"/><path fill="#e1e8e8" d="M46.5 6h3l1 1 7 1 1 1h2l1 1h2l4 2 2 2 4 2 7.5 7.5v1l4 5v2l2 3q-1 4 1 5v8l-1 1v4l-1 1v2l-1 1v2l-2 4-8.5 8.5h-1l-5 4-2 1h-2l-1 1h-2l-1 1q-4-1-5 1h-10l-1-1h-4l-6-3h-2l-2-2-4-2-6.5-6.5-3-6-2-2v-2l-4-8q1-4-1-5v-6l-1-1V31q2.7-1.1 2 1.5l6 6v1l4 4v1L31.5 56l2 1h2l1 1h4l1-1h4l4-2h3l5-3 3.5-3.5 4-7q-1-4 1-5-1.7-.7-1-4l-7-9-2-4-3-3-2-4-4-4-1-2z" opacity=".98"/><path fill="#e1e8e8" d="M220.5 7h2l4.5 4.5v2l-2 2-1 3-7 10-2 5-2 2V37l-9.5 3L187 56.5V58q-2.7-1.1-2 1.5l-16 16V77h-2v2q-2.7-1.1-2 1.5l-26 27v1L125.5 123h-1l-4-4H119q1.1-2.7-1.5-2l-3.5-2.5L145.5 83h1.5q-1.1-2.7 1.5-2l31-31h1.5q-1.1-2.7 1.5-2L195 35.5l2-4v-4l2-4 3.5-3.5h1l3-3h1l3-3h1z" opacity=".98"/><path fill="#e1e8e8" d="M91.5 129h1l2.5 2.5L78.5 148h-1l-2-2-1 1H70v-2q1.8.5 2.5-1l2 2z" opacity=".98"/><path fill="#e1e8e8" d="M206.5 184h10l1 1h5l2.5 2.5 8 20-13.5 17.5h-20l-3.5-2.5-5-9v-2l-2-2 2.5-.5 5.5 7.5v1l3.5 3.5H219v-2h2v-1.5l7-8v-3l-3-6v-2l-4-7v-2l-1.5-1.5q-2.5.5-3-1h-8l-2.5-2.5z" opacity=".98"/><path fill="#e1e8e8" d="M199.5 187h4l3.5 2.5-3 5-6 7v2.5q-2.7-1.1-2 1.5l-1 1q1.7.8.5 1.5l-4.5-4.5q.5-2.5-1-3v-7l3.5-3.5z" opacity=".98"/><path fill="#e1e8e8" d="M220.5 203v3q-3-1.5 0-3" opacity=".98"/><path fill="#e1e8e8" d="M10.5 207q2.8 1.3.5 2.5l-.5 2.5-.5-.5v-4z" opacity=".98"/><path fill="#e1e8e8" d="m205.5 215 2.5.5-2.5.5z" opacity=".98"/><path fill="#083060" d="M35.5 1h14l1 1h6l3 2h3l3 2h2l2 2h2l2 2 4 2L88 22.5l8 16v3l2 4v4l1 1 1 7 2 4 2 2v1L129.5 90h1l3.5-3.5q-.7-2.2 1.5-1.5l40-39h1.5v-2h2q-1.1-2.7 1.5-2l8.5-8.5 1-2v-3q1.5-.5 1-3l2-4 3.5-3.5h1l4-4h1l4-4h1l2-2h1.5q-1.1-2.7 1.5-2l5-4 3-1 5 3 7.5 6.5-1 5-2 2-2 5-2 2v2l-2 2-2 5-2 2-2 5-1.5 1.5-9 4L194 59.5v1l-18 18v1l-26 27v1q2.1 4.9 6.5 7.5h1l16 16h1l34 33 5 3q2.5-.5 3 1h3l6 3 11.5 10.5 5 10v3l1 1q-.8 3.3 1 4v9l-1 1-1 7-2 4-8.5 9.5h-1l-5 4h-2l-3 2q-3.2-.7-4 1h-14q-1-2-5-1l-3-2h-2l-2-2h-2l-9-8H178v-1.5l-3-3-3-6-2-2v-2l-2-2v-2l-2-3v-2l-2-4-6.5-6.5h-1l-12-12h-1l-11-11h-1l-10-10-2-1-5.5 4.5v1l-13 13-3 8-5 5v1l-11 11v1l-8 8v1l-12 12v1L50.5 234h-1l-2 2h-2l-2 2q-4-1-5 1h-6l-2 1-1-1h-4l-1-1h-3l-3-2h-2L6 226.5l-4-7q1-4-1-5v-9l1-1v-3l3-6 3-3v-1L20.5 179H22v-2h2v-2h2q-1.1-2.7 1.5-2l24-24h1l3-3 8-4L85 121.5l-2-5L67.5 101h-1l-3-3-4-2h-2l-1-1h-4l-1-1h-5q-1-2-5-1l-1-1-5-1-3-2h-2l-9-7h-1L16 77.5v-1l-4-4-6-12v-3l-2-4v-5l-1-1v-13l1-1v-5q1.5-.5 1-3L7.5 23h2l6.5 6.5v1l8 8v1L33.5 50l2 1h6q.8-1.7 4-1l2-2h1l6.5-6.5 1-2v-5l-7-9-1-3-3-3-2-4-3-3-6-10zM46 5l-1 1 1 2 9 11 4 7 3 3 1 3 2 2v7l-4 7-5 5-4 2h-4l-3 2H34l-2-2h-1L15 37v-1l-5-6-1 1v7l1 1v5q2 0 1 4l8 16 10 9 10 5h5l1 1h13l1-1h3l4-2h2q1-2 5-3l6-5q-1-3 2-2v-1l4-5 1-5 1-1v-2l1-1V37l-5-11-4-4v-1l-3-4-7-4-2-2h-2l-3-2-5-1-1-1h-4l-1-1h-3zm174 2-18 14h-2v2l-3 4v3q-1 0-1 3l-4 5v1l-2 2h-1l-22 22h-1l-42 42h-1l-9 9v1l9 7 3 1 33-35v-1l15-15v-1l31-31 2-1h2l1-1h2l3-3 3-7 7-10 3-6-5-5zM94 55l-2 2v7l4 7 16 16q-1 2 2 1l9 9v-3L98 69l-4-8zM66 85q-2 1 1 2l7 3 5 4h1l10 10 3 1q0 2 1 1 1-3-1-2l-2-2-12-12q-4 0-5-3h-3l-1-1h-2zm31 23-3 3h-1q-4 1-3 6h2l6-6q2 1 1-2-2 1-2-1m6 4-7 7-2 1 19 17h1q2 1 1 3h2l6 6h2l4-4q1-3-1-3v-3l-2-4-10-10h-1l-7-7zm42 3-7 7v1l-6 6h-2v3l2 3 1 7 21 19q2-1 1 2h2l10 10h1l8 9h-1l-4-4h-1l-11-11h-1l-8-8h-1l-14-14h-2v-2l-3 4 47 44 3-7 11-11 4-2 5-1 1-1h9l-2-2h-3l-1-1h-2l-2-1-18-17h-1l-12-12h-1l-14-14h-1l-7-7zm-54 14-16 16-1-1h-2l-3 3 3 2h-1l-1 1 5 5-6-5h-8l-6 6h-1l-3 3v1l-2 2h-1l-2 3-2 1-30 30-1 2v6q2 0 1 3l3 3v1l8 7h1l6 5h2l3 2h3l1 1 1-1h5l2-1 17-17q-1-3 2-2v-1l22-22 2-4-1-7-13-13 1-1 8 8 20-20h1l2-2-1-4h-1l-11-10-1 4-2 2h-1l2-3v-2q-2 1-2-1zm23 17-13 13h2l12-12zm-7 10-2 3h1l2-2zm-4 3v2q1 1 2-1zm-1 2-3 3v1h1l3-3zm-5 2-4 4h2l2-2zm110 21-1 1 3 2h5q0 2 5 1l3 5v2l4 7 1 5 1 1-1 3-9 10-2-1h-16l-4-4-1-3-4-5h-2v3l2 2v2l2 2v2l2 2v1l4 3h12l1 1h6l2-1 4-4 3-5 6-7v-3q-1-1-1-3l-6-12v-2q-1-1-1-3h-1l-3-2zm-5 2-1 1h-2l-4 2-2 2h-2v2l-2 3v3l1 1v2l2 4 7 8v1l3 2h6q1 2 2 0 3-1 5 1l2-1 7-8-2-4v-2l-3-5v-2l-1-2-4-4h-3l-2-2-1 1zM10 207v8q2 0 1 3l3 3v1l7 6 6 3h11l-3-4-2-1h-2l-7-6-4-2-4-3-2-4-2-2q1-3-2-2" opacity=".988"/><path fill="#083060" d="M281 47h26.5l.5.5q-2 1-1 5 2 1 0 2-1 4 1 5-1.5.5-1 3l1 1v18q-2 1 0 2l.5 2.5 35-39h26l.5.5-6 6V55q-2.7-1.1-2 1.5l-18 19V77q-2.7-1.1-2 1.5l-9 9-2 4 4 4v1l8 9 3 5 16 19 3 5 4 4-.5.5h-27l-4.5-5.5v-1l-4-4v-1l-4-4v-1l-4-4v-1l-4-4v-1l-4-4V107h-1.5l-7.5 7.5-1 2v21q1.8.8.5 1.5h-26l-.5-.5z" opacity=".988"/><path fill="#083060" d="M398.5 68h11l1 1 7 1 8 4 7.5 7.5 3 6q-.5 2.5 1 3v3l1 1V110h-47.5q-.7-.2-.5 2.5l2 4 5.5 5.5h2l3 2h18l1-1h2l1-1h3l2-1 2.5 3.5v2l2 3v2l1 2-2.5 2.5-2 1h-2l-1 1h-2l-1 1q-3.2-.7-4 1h-8l-1 1h-5l-1-1h-9l-1-1h-3l-6-3h-2l-2-2-4-2-5.5-5.5-3-6-2-2v-3l-1-1q.8-3.3-1-4v-13l1-1v-3l3-6v-2L380.5 74l8-4h4l1-1q4 1 5-1m2.5 15-1 1h-2l-2 1q-5 3-6 10h20l1 1 1-1h4v-2l-1-1v-2l-1-2-2-3-4-2z" opacity=".988"/><path fill="#083060" d="M526.5 68h12l1 1 7 1 6 3 7.5 6.5 4 7v2l2 4q-1 4 1 5V110h-47.5q-.7-.2-.5 2.5l2 4 4.5 4.5 6 3h18l4-2h3q.8-1.5 2.5-1-.5 1.8 1 2.5v2l4 8-1.5 1.5-9 4q-4-1-5 1h-10q-.5 1.5-3 1l-1-1h-9l-1-1h-3l-1-1-5-1-7-4-7.5-7.5-5-10q1-4-1-5v-12l1-1v-5l2-3v-2l1-2 9.5-10.5 9-5q3.3.7 4-1h4zm3.5 15q-1 2-3 1l-6 6-1 2v2l-1 1h12l1 1h7l1-1 2 1q3 0 3-1v-2l-1-1v-2l-1-2-5-5z" opacity=".988"/><path fill="#083060" d="M485.5 69h5q.9 1.7 3.5 1v4.5l-1 1q.8 3.3-1 4v4l-1 1v3l-1 1-.5 3.5-1-1h-9l-1 1h-2l-4 2-2.5 2.5-1 2v3l-1 1V139h-23V70h23v9.5q-.4 1 1.5.5l7-8 4-2q4 1 5-1" opacity=".988"/><path fill="#083060" d="M615.5 69h12q.7 1.7 4 1l4 2 5.5 5.5 1.5 2.5h1l2-2h1.5q-1.1-2.7 1.5-2l2-2 7-4q3.3.7 4-1h9l1 1h3l4 2 5.5 4.5 2 4v2l1 1v3l1 1V139h-23V93.5l-3.5-4.5-2-1h-3l-1-1-1 1h-4l-2 1-4.5 4.5-1 2V139h-23V93.5l-3.5-4.5-2-1h-8l-4 2-2.5 2.5-1 2V139h-24V70h24v9h2q-.5-2.1 1.5-3h1l4-4 4-2h3z" opacity=".988"/><path fill="#083060" d="m89.5 138 .5.5-3.5 3.5-.5-.5z" opacity=".988"/><path fill="#083060" d="m84.5 143 .5.5-4.5 4.5-.5-.5z" opacity=".988"/><path fill="#083060" d="M82.5 170q3.6 1.9 4.5 6.5l-1 2L45.5 220h-7l-1.5-1.5 42-43V174q2.7 1.1 2-1.5z" opacity=".988"/><path fill="#083060" d="M485.5 212h2l2.5 2.5q-1.5.8-1 2.5h-5v-3.5z" opacity=".988"/><path fill="#083060" d="M598.5 212q3-.5 3.5 1.5 1.8 5.3-3.5 3.5-2-.5-1.5-3.5z" opacity=".988"/><path fill="#083060" d="M284 213h4v13.5q-.4 1 1.5.5l7-7h4.5q.5 2.1-1.5 3h-1l-3.5 3.5v2l1 2 6 7-.5.5h-5l-4.5-5.5V231q-2.9-.5-4 2.5v4.5h-4z" opacity=".988"/><path fill="#083060" d="M438 213h5v14.5l.5.5 8-8h4l.5.5-6 7v2l6 8-.5.5h-4l-6-7-2.5 1.5v5.5h-5z" opacity=".988"/><path fill="#083060" d="M496 213h3.5l1.5 1.5-1 1V228h1.5l5.5-5.5q-.7-2.2 1.5-1.5l1-1h3.5v1.5l-6 6v1l7 9-.5.5h-5l-5-7h-1l-2.5 2.5v4.5h-4z" opacity=".988"/><path fill="#083060" d="M402 216h4v4h6v4h-6v9.5l2.5 2.5h1q.8-1.5 2.5-1 .8 3-1.5 4h-4q-.9-1.7-3.5-1 .5-1.7-1-2.5V224h-3v-4h3z" opacity=".988"/><path fill="#083060" d="M310.5 220h7l3.5 2.5 1 2v2l1 1v3.5h-13.5q-1-.4-.5 1.5 1.8 3.3 6.5 3.5l1-1h2l2-1 1.5 1.5-2.5 2.5q-2.5-.5-3 1h-5q-.5-1.5-3-1l-3.5-3.5-1-2v-6l4.5-5.5zm1.5 3q-3 2-3 5h9v-2q-1-4-6-3" opacity=".988"/><path fill="#083060" d="M328 220h4v2.5l.5.5 2-2 2-1h2q2.3 1 1.5 4h-4.5l-2.5 2.5-1 2v9.5h-3.5l-.5-.5z" opacity=".988"/><path fill="#083060" d="M348.5 220h7l4.5 4.5q-.5 2.5 1 3v3.5h-13.5q-1-.4-.5 1.5l4.5 3.5 1-1h3l2-1 1.5 2.5-1.5 1.5q-2.5-.5-3 1h-5q-.5-1.5-3-1l-3.5-3.5q.5-2.5-1-3v-5l4.5-5.5zm1.5 3q-4 1-3 5h9v-2q-1-4-6-3" opacity=".988"/><path fill="#083060" d="M366 220h4v2.5l.5.5 3-3q7.5-1.5 9 3l4-3h5l3.5 2.5v15l-.5.5H391v-11.5q-1.5-.7-1-2.5h-4.5l-2.5 2.5V238h-5v-12.5l-1.5-1.5q-4.5-1-5.5 1.5l-1 2V238h-3.5l-.5-.5z" opacity=".988"/><path fill="#083060" d="M421.5 220h6l4.5 3.5 1 2v2l1 1v2.5h-13.5l-.5.5v2.5h1.5l3 2h2l3-2h2.5q.8 3-1.5 4-2.5-.5-3 1h-5q-.5-1.5-3-1l-3.5-3.5-1-2v-6l4.5-5.5zm1.5 3-3 3q0 2 1 2h8l-1-3q-1-3-5-2" opacity=".988"/><path fill="#083060" d="M460 220h3.5l1.5 1.5.5 1.5.5-2q1.8.5 2.5-1h6q.8 1.5 2.5 1-.5 1.8 1 2.5V238h-4v-11.5q-1.5-.7-1-2.5h-5.5l-1.5 1.5-1 2V238h-5v-6.5q2-1 0-2z" opacity=".988"/><path fill="#083060" d="M484 220h4.5l.5.5V238h-4.5l-.5-.5z" opacity=".988"/><path fill="#083060" d="M521.5 220h8q.8 1.5 2.5 1 .5 2.1-1.5 3-2.5.5-3-1h-4q-2.2 1-1.5 4 2.6-.7 3.5 1h3l3.5 2.5q1.3 6.3-2.5 7.5l-2 1h-5q-.7-1.7-4-1l-1.5-1.5q-1.2-3.7 2.5-2.5l1 1 5 1q.8-1.5 2.5-1v-3h-1.5l-1-1h-3l-3-2H518q.5-1.7-1-2.5v-2l2.5-3.5z" opacity=".988"/><path fill="#083060" d="M542.5 220h7l3.5 2.5 1 2v2l1 1v3.5h-13.5q-1-.4-.5 1.5l2.5 2.5q2.5-.5 3 1l1-1q3.3.8 4-1l1.5 2.5-1.5 1.5q-2.5-.5-3 1h-5q-.5-1.5-3-1l-3.5-3.5-1-2v-6l4.5-5.5zm2.5 3-2 1q-3 1-2 4h9v-2q-1-4-5-3" opacity=".988"/><path fill="#083060" d="M560 220h4v2.5l.5.5 3-3h3.5v4h-3.5l-3.5 3.5V238h-4z" opacity=".988"/><path fill="#083060" d="M574 220h3.5l1.5 1.5 1 2v2l2 3v2l1.5 2.5 2.5-3.5v-2l1-1 1-5 1.5-1.5q4.8-1.7 3.5 2.5l-5 10v2l-2.5 3.5H580v-2.5l-2-3v-2l-4-8z" opacity=".988"/><path fill="#083060" d="M598.5 220q3.6-.4 3.5.5V238h-5v-3.5l1-1v-5l-1-2q2-1 0-2-.7-3.7 1.5-4.5" opacity=".988"/><path fill="#083060" d="M611.5 220h8l1.5 1.5q1.3 3.8-2.5 2.5l-1-1h-5l-1.5 2.5 1.5 1.5q2.5-.5 3 1h3l3.5 2.5q1.3 6.3-2.5 7.5-2.5-.5-3 1h-5q-.5-1.5-3-1l-1.5-1.5 1.5-2.5 6 2q.9-1.7 3.5-1v-3h-1.5l-1-1h-3q-.5-1.5-3-1l-2.5-2.5q-1-5.5 2.5-6.5z" opacity=".988"/><path fill="#083060" d="M643.5 220h7l4.5 3.5-3.5 2.5q-1.6-2.8-6-3l-3.5 2.5v2l-1 2q1.5.5 1 3l2.5 2.5h6q.5-1.5 3-1l1.5 1.5-2.5 2.5q-2.5-.5-3 1h-5q-.5-1.5-3-1l-3.5-3.5-1-2v-6l4.5-5.5z" opacity=".988"/><path fill="#083060" d="M664.5 220h7l5.5 4.5q-.5 2.5 1 3v4l-3.5 5.5-2 1h-2l-1 1h-5l-6.5-5.5v-8l4.5-4.5zm2.5 3-2 1-3 4v4l1 2 2 1h6l2-3v-5l-3-4z" opacity=".988"/><path fill="#083060" d="M683 220h4q-1.1 2.7 1.5 2l3-2h4l3 2h2l2-2h6q.8 1.5 2.5 1-.5 1.8 1 2.5V238h-4v-11.5q-1.5-.7-1-2.5-2.6.8-3.5-1l-3.5 2.5q.8 3.3-1 4v8.5h-4v-11.5q-1.5-.7-1-2.5-1.7.5-2.5-1l-3.5 2.5-1 2V238h-3.5l-.5-.5z" opacity=".988"/><path fill="#083060" d="M628.5 234q3-.5 3.5 1.5 1.1 3.3-1.5 2.5l-2 1q-2-.5-1.5-3.5z" opacity=".988"/><path fill="#0a224a" d="M38.5 0h6l.5.5-.5.5h-6z" opacity=".58"/><path fill="#0a224a" d="m50.5 1 3.5.5-3.5.5z" opacity=".58"/><path fill="#0a224a" d="m227.5 5 2.5 2.5-.5.5-2.5-2.5z" opacity=".58"/><path fill="#0a224a" d="M36.5 7q2.5 1 1 2-2.5-1-1-2" opacity=".58"/><path fill="#0a224a" d="M38.5 10q2.5 1 1 2-2.5-1-1-2" opacity=".58"/><path fill="#0a224a" d="M203.5 12q1.5 1-1 2-1.5-1 1-2" opacity=".58"/><path fill="#0a224a" d="M41.5 14q2.5 1 1 2-2.5-1-1-2" opacity=".58"/><path fill="#0a224a" d="m81.5 15 3.5 3.5-.5.5-3.5-3.5z" opacity=".58"/><path fill="#0a224a" d="m199.5 15 .5.5-2.5 2.5-.5-.5z" opacity=".58"/><path fill="#0a224a" d="M43.5 17q2.5 1 1 2-2.5-1-1-2" opacity=".58"/><path fill="#0a224a" d="m46.5 21 2.5 3.5q-1 1.5-2-1l-1-2z" opacity=".58"/><path fill="#0a224a" d="m10.5 23 4.5 4.5-.5.5-4.5-4.5z" opacity=".58"/><path fill="#0a224a" d="M89.5 25q2.5 1 1 2-2.5-1-1-2" opacity=".58"/><path fill="#0a224a" d="M50.5 27q2.5 1 1 2-2.5-1-1-2" opacity=".58"/><path fill="#0a224a" d="m16.5 30 3.5 3.5-.5.5-3.5-3.5z" opacity=".58"/><path fill="#0a224a" d="M52.5 30q2.5 1 1 2-2.5-1-1-2" opacity=".58"/><path fill="#0a224a" d="m3.5 31 .5 2.5H3z" opacity=".58"/><path fill="#0a224a" d="m54.5 33 1.5 2.5h-1l-1-2z" opacity=".58"/><path fill="#0a224a" d="M221.5 34q1.5 1-1 2-1.5-1 1-2" opacity=".58"/><path fill="#0a224a" d="m2.5 37 .5.5v4H2v-4z" opacity=".58"/><path fill="#0a224a" d="m24.5 39 3.5 3.5-.5.5-3.5-3.5z" opacity=".58"/><path fill="#0a224a" d="m182.5 39 .5.5-2.5 2.5-.5-.5z" opacity=".58"/><path fill="#0a224a" d="m29.5 45 4.5 4.5-.5.5-4.5-4.5z" opacity=".58"/><path fill="#0a224a" d="M281.5 46h26l.5.5-.5.5H281v91.5l.5.5h26v1h-26l-1.5-1.5v-91z" opacity=".58"/><path fill="#0a224a" d="M343.5 46h27q1-.4.5 1.5l-6.5 6.5-.5-.5 6-6-.5-.5h-26l-5 5-.5-.5z" opacity=".58"/><path fill="#0a224a" d="m3.5 48 .5 3.5H3z" opacity=".58"/><path fill="#0a224a" d="m307.5 48 .5.5v4h-1v-4z" opacity=".58"/><path fill="#0a224a" d="m307.5 54 .5.5v4h-1v-4z" opacity=".58"/><path fill="#0a224a" d="m336.5 54 .5.5-8.5 8.5-.5-.5z" opacity=".58"/><path fill="#0a224a" d="m165.5 55 .5.5-5.5 5.5-.5-.5z" opacity=".58"/><path fill="#0a224a" d="m198.5 55 .5.5-4.5 4.5-.5-.5z" opacity=".58"/><path fill="#0a224a" d="M92.5 56q2.3-.7 1.5 1.5l-.5.5q-2.5-1-1-2" opacity=".58"/><path fill="#0a224a" d="m100.5 56 1.5 3.5h-1l-1-2z" opacity=".58"/><path fill="#0a224a" d="m359.5 59 .5.5-8.5 8.5-.5-.5z" opacity=".58"/><path fill="#0a224a" d="m307.5 60 .5 2.5h-1z" opacity=".58"/><path fill="#0a224a" d="m104.5 64 25 25h1l3-3 .5.5-3.5 3.5h-1L104 64.5z" opacity=".58"/><path fill="#0a224a" d="m327.5 64 .5.5-5.5 5.5-.5-.5z" opacity=".58"/><path fill="#0a224a" d="m8.5 65 1.5 2.5q-1 1.5-2-1z" opacity=".58"/><path fill="#0a224a" d="M94.5 67q2.5 1 1 2-2.5-1-1-2" opacity=".58"/><path fill="#0a224a" d="m410.5 68 2.5.5-2.5.5z" opacity=".58"/><path fill="#0a224a" d="M618.5 68h7l.5.5-.5.5h-7z" opacity=".58"/><path fill="#0a224a" d="M663.5 68h5l.5.5-.5.5h-5z" opacity=".58"/><path fill="#0a224a" d="m185.5 69 .5.5-9.5 9.5-.5-.5z" opacity=".58"/><path fill="#0a224a" d="m390.5 69 2.5.5-2.5.5z" opacity=".58"/><path fill="#0a224a" d="m414.5 69 2.5.5-2.5.5z" opacity=".58"/><path fill="#0a224a" d="m481.5 69 3.5.5-3.5.5z" opacity=".58"/><path fill="#0a224a" d="M491.5 69q5.3-1.7 3.5 3.5h-1q1.3-3.7-2.5-2.5z" opacity=".58"/><path fill="#0a224a" d="m543.5 69 2.5.5-2.5.5z" opacity=".58"/><path fill="#0a224a" d="m628.5 69 2.5.5-2.5.5z" opacity=".58"/><path fill="#0a224a" d="m658.5 69 2.5.5-2.5.5z" opacity=".58"/><path fill="#0a224a" d="m671.5 69 2.5.5-2.5.5z" opacity=".58"/><path fill="#0a224a" d="m96.5 70 2.5 2.5-.5.5-2.5-2.5z" opacity=".58"/><path fill="#0a224a" d="m418.5 70 3.5 1.5-1.5.5-2.5-1.5z" opacity=".58"/><path fill="#0a224a" d="m468.5 70 .5.5v8l.5.5.5-1.5 4.5-4.5.5.5-4 4-1.5 2.5q-1.9.5-1.5-.5v-9z" opacity=".58"/><path fill="#0a224a" d="m599.5 70 .5.5v7l1 1-2 .5v-8.5z" opacity=".58"/><path fill="#0a224a" d="M100.5 71 123 93.5l-.5.5L100 71.5z" opacity=".58"/><path fill="#0a224a" d="m348.5 71 .5.5-4.5 4.5-.5-.5z" opacity=".58"/><path fill="#0a224a" d="m549.5 71 2.5 1.5q-.8 1.2-1.5-.5-2.4-.1-1-1" opacity=".58"/><path fill="#0a224a" d="M677.5 71h1l2.5 2.5-.5.5-2-2q-2.4-.1-1-1" opacity=".58"/><path fill="#0a224a" d="m423.5 72 2 1 7.5 7.5-.5.5-7-7-2.5-1.5z" opacity=".58"/><path fill="#0a224a" d="m606.5 72 .5.5-3.5 3.5-.5-.5z" opacity=".58"/><path fill="#0a224a" d="M636.5 72q4.4 2.6 6.5 7.5-1 1.5-2-1v-1l-5-5z" opacity=".58"/><path fill="#0a224a" d="M652.5 72q1.5 1-1 2h-1l-2 2-.5-.5 2.5-2.5z" opacity=".58"/><path fill="#0a224a" d="m319.5 73 .5.5-5.5 5.5-.5-.5z" opacity=".58"/><path fill="#0a224a" d="M510.5 73q1.5 1-1 2-1.5-1 1-2" opacity=".58"/><path fill="#0a224a" d="m553.5 73 6.5 5.5-.5.5-3-3h-1l-2.5-2.5z" opacity=".58"/><path fill="#0a224a" d="m13.5 74 2.5 2.5-.5.5-2.5-2.5z" opacity=".58"/><path fill="#0a224a" d="m144.5 75 .5.5-9.5 9.5-.5-.5z" opacity=".58"/><path fill="#0a224a" d="m378.5 75 .5.5-6.5 6.5-.5-.5z" opacity=".58"/><path fill="#0a224a" d="m493.5 75 .5 2.5h-1z" opacity=".58"/><path fill="#0a224a" d="m507.5 75 .5.5-6.5 6.5-.5-.5z" opacity=".58"/><path fill="#0a224a" d="m684.5 77 1.5 2.5h-1l-1-2z" opacity=".58"/><path fill="#0a224a" d="m492.5 79 .5 2.5h-1z" opacity=".58"/><path fill="#0a224a" d="m313.5 80 .5.5-5.5 5.5-.5-.5z" opacity=".58"/><path fill="#0a224a" d="m340.5 80 .5.5-7 7-2 4 3 3-.5.5-3.5-3.5v-1z" opacity=".58"/><path fill="#0a224a" d="M560.5 80q2.5 1 1 2-2.5-1-1-2" opacity=".58"/><path fill="#0a224a" d="m686.5 81 1.5 2.5v3h-1v-3q-1.7-.7-.5-2.5" opacity=".58"/><path fill="#0a224a" d="m21.5 82 2.5 2.5-.5.5-2.5-2.5z" opacity=".58"/><path fill="#0a224a" d="M433.5 82q2.1 1.4 2.5 4.5h-1l-2-4z" opacity=".58"/><path fill="#0a224a" d="M371.5 83q1.5 1-1 2-1.5-1 1-2" opacity=".58"/><path fill="#0a224a" d="M400.5 83h7l.5.5-.5.5h-7z" opacity=".58"/><path fill="#0a224a" d="M500.5 83q1.5 1-1 2-1.5-1 1-2" opacity=".58"/><path fill="#0a224a" d="M529.5 83h8l.5.5-.5.5h-8z" opacity=".58"/><path fill="#0a224a" d="M397.5 84q1.5 1-1 2h-1l-3 3-.5-.5 3.5-3.5z" opacity=".58"/><path fill="#0a224a" d="m491.5 84 .5 2.5h-1z" opacity=".58"/><path fill="#0a224a" d="M526.5 84q1.5 1-1 2-1.5-1 1-2" opacity=".58"/><path fill="#0a224a" d="m539.5 84 4.5 5.5q-1 1.5-2-1v-1l-3-3z" opacity=".58"/><path fill="#0a224a" d="M25.5 85q2.5 1 1 2-2.5-1-1-2" opacity=".58"/><path fill="#0a224a" d="M65.5 85q2.3-.7 1.5 1.5l-.5.5q-2.5-1-1-2" opacity=".58"/><path fill="#0a224a" d="m411.5 85 2.5 2.5-.5.5-2.5-2.5z" opacity=".58"/><path fill="#0a224a" d="M69.5 86q1.5 1-1 2-1.5-1 1-2" opacity=".58"/><path fill="#0a224a" d="m369.5 86 .5 1.5-1.5 2.5-.5-1.5z" opacity=".58"/><path fill="#0a224a" d="m168.5 87 .5.5-4.5 4.5-.5-.5z" opacity=".58"/><path fill="#0a224a" d="m564.5 87 1.5 2.5v2h-1q.5-2.5-1-3z" opacity=".58"/><path fill="#0a224a" d="m497.5 88 .5 1.5-1.5 2.5-.5-1.5z" opacity=".58"/><path fill="#0a224a" d="M522.5 88q1.5 1-1 2-1.5-1 1-2" opacity=".58"/><path fill="#0a224a" d="M613.5 88q3.9.6 5.5 3.5l1 3h-1q-.4-3.1-2.5-4.5l-3-1z" opacity=".58"/><path fill="#0a224a" d="m650.5 88 1.5.5-3.5 1.5v-1z" opacity=".58"/><path fill="#0a224a" d="M658.5 88q3.9.6 5.5 3.5l-.5.5-2-2-3-1z" opacity=".58"/><path fill="#0a224a" d="M74.5 90q2.5 1 1 2-2.5-1-1-2" opacity=".58"/><path fill="#0a224a" d="m391.5 90 .5 1.5-1 1-.5 2.5-.5-2.5z" opacity=".58"/><path fill="#0a224a" d="m602.5 90 .5.5-2.5 2.5-.5-.5z" opacity=".58"/><path fill="#0a224a" d="m437.5 91 .5 2.5h-1z" opacity=".58"/><path fill="#0a224a" d="M479.5 91h9l.5.5-.5.5h-9z" opacity=".58"/><path fill="#0a224a" d="M77.5 92q2.5 1 1 2-2.5-1-1-2" opacity=".58"/><path fill="#0a224a" d="m544.5 92 .5 2.5q-.5 2-3.5 1.5v-1h2.5z" opacity=".58"/><path fill="#0a224a" d="M645.5 92q1.5 1-1 2-1.5-1 1-2" opacity=".58"/><path fill="#0a224a" d="m688.5 92 .5.5v46l-1.5 1.5h-22l-1.5-2.5h1q-.5 1.9.5 1.5H688V92.5z" opacity=".58"/><path fill="#0a224a" d="m82.5 93 8.5 8.5 1 2q-.8 1.2-1.5-.5l-1 1-6.5-6.5.5-.5 6 6 .5-.5v-1l-8-8z" opacity=".58"/><path fill="#0a224a" d="m566.5 93 .5 3.5h-1z" opacity=".58"/><path fill="#0a224a" d="m664.5 93 .5 2.5h-1z" opacity=".58"/><path fill="#0a224a" d="m472.5 94 .5.5-2 2-1.5 3.5-.5-1.5z" opacity=".58"/><path fill="#0a224a" d="m495.5 94 .5 3.5q-1 2.5-2 1l1-1z" opacity=".58"/><path fill="#0a224a" d="m599.5 94 .5.5v12h-1v-12z" opacity=".58"/><path fill="#0a224a" d="M531.5 95h7l.5.5-.5.5h-7z" opacity=".58"/><path fill="#0a224a" d="m643.5 95 .5.5v43l-1.5 1.5h-22v-1H643V95.5z" opacity=".58"/><path fill="#0a224a" d="m335.5 96 3.5 3.5-.5.5-3.5-3.5z" opacity=".58"/><path fill="#0a224a" d="m438.5 96 .5.5v13h-1v-13z" opacity=".58"/><path fill="#0a224a" d="m567.5 99 .5.5v10h-1v-10z" opacity=".58"/><path fill="#0a224a" d="m156.5 100 .5.5-6.5 6.5-.5-.5z" opacity=".58"/><path fill="#0a224a" d="m339.5 101 3.5 3.5-.5.5-3.5-3.5z" opacity=".58"/><path fill="#0a224a" d="m494.5 101 .5.5v5h-1v-5z" opacity=".58"/><path fill="#0a224a" d="m365.5 102 .5.5v4h-1v-4z" opacity=".58"/><path fill="#0a224a" d="m468.5 102 .5.5V140h-23.5l-1.5-1.5q.7-1.2 1.5.5H468v-36.5z" opacity=".58"/><path fill="#0a224a" d="m343.5 106 2.5 2.5-.5.5-2.5-2.5z" opacity=".58"/><path fill="#0a224a" d="m151.5 109 5.5 5.5-.5.5-5.5-5.5z" opacity=".58"/><path fill="#0a224a" d="m313.5 109 .5.5-5.5 5.5-.5-.5z" opacity=".58"/><path fill="#0a224a" d="m317.5 109 3.5 3.5-.5.5-3.5-3.5z" opacity=".58"/><path fill="#0a224a" d="m494.5 109 1.5 2.5v2h-1q.5-2.5-1-3z" opacity=".58"/><path fill="#0a224a" d="m346.5 110 3.5 3.5-.5.5-3.5-3.5z" opacity=".58"/><path fill="#0a224a" d="m390.5 110 .5 2.5h-1z" opacity=".58"/><path fill="#0a224a" d="m519.5 110 .5 2.5h-1z" opacity=".58"/><path fill="#0a224a" d="m366.5 111 1.5 5.5h-1l-1-2z" opacity=".58"/><path fill="#0a224a" d="m599.5 111 .5.5v6h-1v-6z" opacity=".58"/><path fill="#0a224a" d="m321.5 114 3.5 3.5-.5.5-3.5-3.5z" opacity=".58"/><path fill="#0a224a" d="M81.5 115q2.5 1 1 2-2.5-1-1-2" opacity=".58"/><path fill="#0a224a" d="m350.5 115 3.5 3.5-.5.5-3.5-3.5z" opacity=".58"/><path fill="#0a224a" d="m307.5 116 .5.5v21h-1v-21z" opacity=".58"/><path fill="#0a224a" d="m392.5 116 5 5 1.5.5-1.5.5-5.5-5.5z" opacity=".58"/><path fill="#0a224a" d="m496.5 116 1.5 3.5h-1l-1-2z" opacity=".58"/><path fill="#0a224a" d="m521.5 116 4.5 4.5-.5.5-4.5-4.5z" opacity=".58"/><path fill="#0a224a" d="m325.5 119 3.5 3.5-.5.5-3.5-3.5z" opacity=".58"/><path fill="#0a224a" d="m368.5 119 4.5 6.5-.5.5-2.5-2.5-2-4z" opacity=".58"/><path fill="#0a224a" d="m354.5 120 3.5 3.5-.5.5-3.5-3.5z" opacity=".58"/><path fill="#0a224a" d="m428.5 120 2.5 1.5q-.8 1.2-1.5-.5l-3 1v-1z" opacity=".58"/><path fill="#0a224a" d="m557.5 120 1.5.5-3.5 1.5v-1z" opacity=".58"/><path fill="#0a224a" d="m599.5 120 .5 2.5h-1z" opacity=".58"/><path fill="#0a224a" d="m84.5 121 .5.5-7.5 7.5-.5-.5z" opacity=".58"/><path fill="#0a224a" d="m164.5 121 9.5 9.5-.5.5-9.5-9.5z" opacity=".58"/><path fill="#0a224a" d="m153.5 122 8.5 8.5-.5.5-8.5-8.5z" opacity=".58"/><path fill="#0a224a" d="m402.5 123 2.5.5-2.5.5z" opacity=".58"/><path fill="#0a224a" d="m417.5 123 3.5.5-3.5.5z" opacity=".58"/><path fill="#0a224a" d="M499.5 123q2.5 1 1 2-2.5-1-1-2" opacity=".58"/><path fill="#0a224a" d="m531.5 123 3.5.5-3.5.5z" opacity=".58"/><path fill="#0a224a" d="m546.5 123 3.5.5-3.5.5z" opacity=".58"/><path fill="#0a224a" d="m329.5 124 3.5 3.5-.5.5-3.5-3.5z" opacity=".58"/><path fill="#0a224a" d="m560.5 124 1.5 3.5h-1l-1-2z" opacity=".58"/><path fill="#0a224a" d="m358.5 125 3.5 3.5-.5.5-3.5-3.5z" opacity=".58"/><path fill="#0a224a" d="m432.5 125 1.5 3.5h-1l-1-2z" opacity=".58"/><path fill="#0a224a" d="m599.5 125 .5.5v13l-1.5 1.5h-23v-1H599v-13.5z" opacity=".58"/><path fill="#0a224a" d="m501.5 126 5.5 5.5-.5.5-5.5-5.5z" opacity=".58"/><path fill="#0a224a" d="m373.5 127 3.5 3.5-.5.5-3.5-3.5z" opacity=".58"/><path fill="#0a224a" d="m333.5 129 3.5 3.5-.5.5-3.5-3.5z" opacity=".58"/><path fill="#0a224a" d="m362.5 130 2.5 2.5-.5.5-2.5-2.5z" opacity=".58"/><path fill="#0a224a" d="m434.5 130 1.5 3.5-2.5 2.5-.5-.5 2-2v-1q-1.7-.7-.5-2.5" opacity=".58"/><path fill="#0a224a" d="M379.5 132q2.5 1 1 2-2.5-1-1-2" opacity=".58"/><path fill="#0a224a" d="M509.5 133q2.5 1 1 2-2.5-1-1-2" opacity=".58"/><path fill="#0a224a" d="m337.5 134 2.5 2.5-.5.5-2.5-2.5z" opacity=".58"/><path fill="#0a224a" d="m365.5 134 2.5 2.5-.5.5-2.5-2.5z" opacity=".58"/><path fill="#0a224a" d="M382.5 134q2.5 1 1 2-2.5-1-1-2" opacity=".58"/><path fill="#0a224a" d="M68.5 136q1.5 1-1 2-1.5-1 1-2" opacity=".58"/><path fill="#0a224a" d="m168.5 136 6.5 6.5-.5.5-6.5-6.5z" opacity=".58"/><path fill="#0a224a" d="m385.5 136 3.5 1.5-1.5.5-2.5-1.5z" opacity=".58"/><path fill="#0a224a" d="M559.5 136q1.5 1-1 2l-1.5-.5z" opacity=".58"/><path fill="#0a224a" d="m65.5 139 .5.5-2.5 2.5-.5-.5z" opacity=".58"/><path fill="#0a224a" d="M341.5 139h27l.5.5-.5.5h-27z" opacity=".58"/><path fill="#0a224a" d="m393.5 139 2.5.5-2.5.5z" opacity=".58"/><path fill="#0a224a" d="m421.5 139 2.5.5-2.5.5z" opacity=".58"/><path fill="#0a224a" d="m522.5 139 2.5.5-2.5.5z" opacity=".58"/><path fill="#0a224a" d="m549.5 139 2.5.5-2.5.5z" opacity=".58"/><path fill="#0a224a" d="M399.5 140h6l.5.5-.5.5h-6z" opacity=".58"/><path fill="#0a224a" d="M412.5 140h4l.5.5-.5.5h-4z" opacity=".58"/><path fill="#0a224a" d="M527.5 140h7l.5.5-.5.5h-7z" opacity=".58"/><path fill="#0a224a" d="M538.5 140h7l.5.5-.5.5h-7z" opacity=".58"/><path fill="#0a224a" d="m186.5 142 6.5 6.5-.5.5-6.5-6.5z" opacity=".58"/><path fill="#0a224a" d="M53.5 147q1.5 1-1 2-1.5-1 1-2" opacity=".58"/><path fill="#0a224a" d="m181.5 148 9.5 9.5-.5.5-9.5-9.5z" opacity=".58"/><path fill="#0a224a" d="m200.5 155 8.5 8.5-.5.5-8.5-8.5z" opacity=".58"/><path fill="#0a224a" d="m117.5 157 .5.5-3.5 3.5-.5-.5z" opacity=".58"/><path fill="#0a224a" d="M121.5 157q2.5 1 1 2-2.5-1-1-2" opacity=".58"/><path fill="#0a224a" d="m194.5 160 4.5 4.5-.5.5-4.5-4.5z" opacity=".58"/><path fill="#0a224a" d="m36.5 163 .5.5-9.5 9.5-.5-.5z" opacity=".58"/><path fill="#0a224a" d="m132.5 167 7.5 7.5-.5.5-7.5-7.5z" opacity=".58"/><path fill="#0a224a" d="m206.5 168 3.5.5-3.5.5z" opacity=".58"/><path fill="#0a224a" d="M226.5 171q2.5 1 1 2-2.5-1-1-2" opacity=".58"/><path fill="#0a224a" d="m230.5 174 5.5 5.5-.5.5-5.5-5.5z" opacity=".58"/><path fill="#0a224a" d="m144.5 178 5.5 5.5-.5.5-5.5-5.5z" opacity=".58"/><path fill="#0a224a" d="m96.5 184 .5.5-3.5 3.5-.5-.5z" opacity=".58"/><path fill="#0a224a" d="M238.5 184q2.5 1 1 2-2.5-1-1-2" opacity=".58"/><path fill="#0a224a" d="m157.5 190 6.5 6.5-.5.5-6.5-6.5z" opacity=".58"/><path fill="#0a224a" d="M7.5 192q1.5 1-1 2-1.5-1 1-2" opacity=".58"/><path fill="#0a224a" d="m86.5 195 .5.5-4.5 4.5-.5-.5z" opacity=".58"/><path fill="#0a224a" d="m243.5 196 .5 2.5h-1z" opacity=".58"/><path fill="#0a224a" d="M3.5 198q1.2.7-.5 1.5l-.5 1.5-.5-1.5z" opacity=".58"/><path fill="#0a224a" d="m80.5 202 .5.5-6.5 6.5-.5-.5z" opacity=".58"/><path fill="#0a224a" d="m.5 208 .5.5v4H0v-4z" opacity=".58"/><path fill="#0a224a" d="m168.5 208 1.5 2.5h-1l-1-2z" opacity=".58"/><path fill="#0a224a" d="m170.5 212 2.5 3.5q-1 1.5-2-1l-1-2z" opacity=".58"/><path fill="#0a224a" d="M488.5 212q2.5 1 1 2-2.5-1-1-2" opacity=".58"/><path fill="#0a224a" d="M601.5 212q2 .5 1.5 3.5h-1q.5-2.5-1-3z" opacity=".58"/><path fill="#0a224a" d="m283.5 213 .5.5V238h4v-4.5h1v5.5h-6v-25.5z" opacity=".58"/><path fill="#0a224a" d="m288.5 213 .5.5v13h-1v-13z" opacity=".58"/><path fill="#0a224a" d="m443.5 213 .5.5v12h-1v-12z" opacity=".58"/><path fill="#0a224a" d="m495.5 213 .5.5V238h4v-4.5h1v5.5h-6v-25.5z" opacity=".58"/><path fill="#0a224a" d="m596.5 214 2 3 2.5.5-2.5.5-2.5-2.5z" opacity=".58"/><path fill="#0a224a" d="M402.5 215h4.5v4.5h-1V216h-4l-.5 4-.5-3.5z" opacity=".58"/><path fill="#0a224a" d="m500.5 215 .5.5v11l.5.5 5-5 .5.5-5.5 5.5H500v-12.5z" opacity=".58"/><path fill="#0a224a" d="m67.5 216 .5.5-5.5 5.5-.5-.5z" opacity=".58"/><path fill="#0a224a" d="M173.5 217q2.5 1 1 2-2.5-1-1-2" opacity=".58"/><path fill="#0a224a" d="m485.5 217 2.5.5-2.5.5z" opacity=".58"/><path fill="#0a224a" d="m312.5 219 3.5.5-3.5.5z" opacity=".58"/><path fill="#0a224a" d="m350.5 219 3.5.5-3.5.5z" opacity=".58"/><path fill="#0a224a" d="m388.5 219 2.5.5-2.5.5z" opacity=".58"/><path fill="#0a224a" d="m423.5 219 3.5.5-3.5.5z" opacity=".58"/><path fill="#0a224a" d="m470.5 219 2.5.5-2.5.5z" opacity=".58"/><path fill="#0a224a" d="m524.5 219 2.5.5-2.5.5z" opacity=".58"/><path fill="#0a224a" d="m544.5 219 2.5.5-2.5.5z" opacity=".58"/><path fill="#0a224a" d="m614.5 219 2.5.5-2.5.5z" opacity=".58"/><path fill="#0a224a" d="m645.5 219 3.5.5-3.5.5z" opacity=".58"/><path fill="#0a224a" d="m666.5 219 3.5.5-3.5.5z" opacity=".58"/><path fill="#0a224a" d="m692.5 219 2.5.5-2.5.5z" opacity=".58"/><path fill="#0a224a" d="m704.5 219 2.5.5-2.5.5z" opacity=".58"/><path fill="#0a224a" d="m175.5 220 2.5 2.5-.5.5-2.5-2.5z" opacity=".58"/><path fill="#0a224a" d="m308.5 220 1.5.5-4.5 3.5-.5-.5z" opacity=".58"/><path fill="#0a224a" d="m327.5 220 .5.5V238h4v-9.5h1V239h-6v-18.5z" opacity=".58"/><path fill="#0a224a" d="M332.5 220q3 1.5 0 3-1.3-.8 0-3" opacity=".58"/><path fill="#0a224a" d="m346.5 220 1.5.5-4.5 3.5-.5-.5z" opacity=".58"/><path fill="#0a224a" d="m356.5 220 3.5 3.5-.5.5-3.5-3.5z" opacity=".58"/><path fill="#0a224a" d="m365.5 220 .5.5V238h4v-10.5h1V239h-6v-18.5z" opacity=".58"/><path fill="#0a224a" d="m372.5 220 .5.5-2.5 2.5-.5-.5z" opacity=".58"/><path fill="#0a224a" d="m380.5 220 2 2q.8-1.8 1.5-.5l-1.5 1.5-2.5-2.5z" opacity=".58"/><path fill="#0a224a" d="m419.5 220 1.5.5q-3.6.9-5 4l-.5 1.5-.5-1.5z" opacity=".58"/><path fill="#0a224a" d="M428.5 220h1l2.5 2.5-.5.5-2-2q-2.4-.1-1-1" opacity=".58"/><path fill="#0a224a" d="m450.5 220 .5.5-3.5 3.5-.5-.5z" opacity=".58"/><path fill="#0a224a" d="m489.5 220 .5.5V239h-5.5l-.5-.5 5-.5v-17.5z" opacity=".58"/><path fill="#0a224a" d="m559.5 220 .5.5V238h3.5l1-1q1.5 1-1 2-4.5.5-4.5-.5v-18z" opacity=".58"/><path fill="#0a224a" d="m566.5 220 .5.5-2.5 2.5-.5-.5z" opacity=".58"/><path fill="#0a224a" d="m571.5 220 .5 3.5q-.7 2.3-4.5 1.5v-1h3.5z" opacity=".58"/><path fill="#0a224a" d="m578.5 220 1.5 2.5h-1l-1-2z" opacity=".58"/><path fill="#0a224a" d="m609.5 220 1.5.5-3.5 2.5-.5-.5z" opacity=".58"/><path fill="#0a224a" d="M620.5 220q2 .5 1.5 3.5-1 2.5-2 1 1.5-.5 1-3-1.7-.7-.5-1.5" opacity=".58"/><path fill="#0a224a" d="m641.5 220 1.5.5q-3.6.9-5 4l-.5 1.5-.5-1.5z" opacity=".58"/><path fill="#0a224a" d="m662.5 220 1.5.5-1.5.5-4 4-.5-.5z" opacity=".58"/><path fill="#0a224a" d="m682.5 220 .5.5V238h4v-10.5h1V239h-6v-18.5z" opacity=".58"/><path fill="#0a224a" d="m689.5 220 1.5.5-2.5 1.5q-1.5-1 1-2" opacity=".58"/><path fill="#0a224a" d="M701.5 220q1.5 1-1 2-1.5-1 1-2" opacity=".58"/><path fill="#0a224a" d="M239.5 221q1.5 1-1 2-1.5-1 1-2" opacity=".58"/><path fill="#0a224a" d="m398.5 221 .5 2.5h-1z" opacity=".58"/><path fill="#0a224a" d="M455.5 221q1.5 1-1 2-1.5-1 1-2" opacity=".58"/><path fill="#0a224a" d="m539.5 221 .5.5-2.5 2.5-.5-.5z" opacity=".58"/><path fill="#0a224a" d="m674.5 221 2.5 2.5-.5.5-2.5-2.5z" opacity=".58"/><path fill="#0a224a" d="m298.5 223 .5.5-3.5 3.5-.5-.5z" opacity=".58"/><path fill="#0a224a" d="M311.5 223q1.5 1-1 2-1.5-1 1-2" opacity=".58"/><path fill="#0a224a" d="m349.5 223 .5.5-2 2-.5 1.5-.5-1.5z" opacity=".58"/><path fill="#0a224a" d="m353.5 223 2.5 2.5-.5.5-2.5-2.5z" opacity=".58"/><path fill="#0a224a" d="m395.5 223 .5.5V239h-6v-12.5h1V238h4v-14.5z" opacity=".58"/><path fill="#0a224a" d="m422.5 223 .5.5-2.5 2.5-.5-.5z" opacity=".58"/><path fill="#0a224a" d="M426.5 223q2.5 1 1 2-2.5-1-1-2" opacity=".58"/><path fill="#0a224a" d="M531.5 223q1.5 1-1 2-1.5-1 1-2" opacity=".58"/><path fill="#0a224a" d="m547.5 223 2.5 2.5-.5.5-2.5-2.5z" opacity=".58"/><path fill="#0a224a" d="M612.5 223q1.2.7-.5 1.5l1 2q-1 1.5-2-1z" opacity=".58"/><path fill="#0a224a" d="M668.5 223h1l3.5 3.5v5l-.5.5-.5-.5v-5l-2.5-2.5q-2.4-.1-1-1" opacity=".58"/><path fill="#0a224a" d="M4.5 224q2.5 1 1 2-2.5-1-1-2" opacity=".58"/><path fill="#0a224a" d="m179.5 224 4.5 4.5-.5.5-4.5-4.5z" opacity=".58"/><path fill="#0a224a" d="m335.5 224 1.5.5-3.5 2.5-.5-.5z" opacity=".58"/><path fill="#0a224a" d="M372.5 224q1.5 1-1 2-1.5-1 1-2" opacity=".58"/><path fill="#0a224a" d="m401.5 224 .5.5v10h-1v-10z" opacity=".58"/><path fill="#0a224a" d="m406.5 224 .5.5v9h-1v-9z" opacity=".58"/><path fill="#0a224a" d="M432.5 224q2 .5 1.5 3.5h-1q.5-2.5-1-3z" opacity=".58"/><path fill="#0a224a" d="M467.5 224q1.5 1-1 2-1.5-1 1-2" opacity=".58"/><path fill="#0a224a" d="m478.5 224 .5.5V239h-6v-12.5h1V238h4v-13.5z" opacity=".58"/><path fill="#0a224a" d="M542.5 224q1.2.7-.5 1.5l-.5 1.5-.5-1.5z" opacity=".58"/><path fill="#0a224a" d="M643.5 224q1.5 1-1 2-1.5-1 1-2" opacity=".58"/><path fill="#0a224a" d="M653.5 224q1.5 1-1 2-1.5-1 1-2" opacity=".58"/><path fill="#0a224a" d="M664.5 224q1.2.7-.5 1.5l-1 2v4l-.5.5-.5-.5v-4z" opacity=".58"/><path fill="#0a224a" d="M689.5 224q1.5 1-1 2-1.5-1 1-2" opacity=".58"/><path fill="#0a224a" d="M701.5 224q1.5 1-1 2-1.5-1 1-2" opacity=".58"/><path fill="#0a224a" d="m706.5 224 1.5 2.5V238h3.5l.5-.5v-12h1V239h-6v-12.5q-1.7-.7-.5-2.5" opacity=".58"/><path fill="#0a224a" d="m236.5 225 .5.5-3.5 3.5-.5-.5z" opacity=".58"/><path fill="#0a224a" d="m58.5 226 .5.5-6.5 6.5-.5-.5z" opacity=".58"/><path fill="#0a224a" d="m383.5 226 .5.5v11q-1 2.5-5.5 1.5v-1h4.5v-11.5z" opacity=".58"/><path fill="#0a224a" d="M508.5 226q1.2.7-.5 1.5l-.5 1.5-.5-1.5z" opacity=".58"/><path fill="#0a224a" d="m694.5 226 .5.5V238h4v-8.5h1v9.5h-6v-12.5z" opacity=".58"/><path fill="#0a224a" d="m6.5 227 6.5 6.5-.5.5-6.5-6.5z" opacity=".58"/><path fill="#0a224a" d="m414.5 227 .5.5v4h-1v-4z" opacity=".58"/><path fill="#0a224a" d="m465.5 227 .5.5V239h-5.5l-.5-.5 5-.5v-10.5z" opacity=".58"/><path fill="#0a224a" d="m564.5 227 .5 3.5h-1z" opacity=".58"/><path fill="#0a224a" d="m636.5 227 .5.5v4h-1v-4z" opacity=".58"/><path fill="#0a224a" d="m657.5 227 .5.5v4h-1v-4z" opacity=".58"/><path fill="#0a224a" d="m597.5 228 .5.5v5h-1v-5z" opacity=".58"/><path fill="#0a224a" d="M607.5 228q2.5 1 1 2-2.5-1-1-2" opacity=".58"/><path fill="#0a224a" d="m619.5 228 2.5 1.5q-.8 1.2-1.5-.5-2.4-.1-1-1" opacity=".58"/><path fill="#0a224a" d="M450.5 229q2.5 1 1 2-2.5-1-1-2" opacity=".58"/><path fill="#0a224a" d="m519.5 229 2.5 1.5-1.5.5q-2.5-1-1-2" opacity=".58"/><path fill="#0a224a" d="m230.5 230 .5.5-2.5 2.5-2 1q-1.5-1 1-2h1z" opacity=".58"/><path fill="#0a224a" d="m296.5 230 2.5 2.5-.5.5-2.5-2.5z" opacity=".58"/><path fill="#0a224a" d="m508.5 230 2.5 2.5-.5.5-2.5-2.5z" opacity=".58"/><path fill="#0a224a" d="m589.5 230 .5 1.5-1.5 2.5-.5-1.5z" opacity=".58"/><path fill="#0a224a" d="m347.5 231 2.5 3.5-.5.5-2.5-2.5z" opacity=".58"/><path fill="#0a224a" d="M444.5 231q1.2.7-.5 1.5l-.5 1.5-.5-1.5z" opacity=".58"/><path fill="#0a224a" d="M503.5 231q2.5 1 1 2-2.5-1-1-2" opacity=".58"/><path fill="#0a224a" d="m532.5 231 .5.5v4l-3.5 3.5h-1v-1h1l2.5-2.5v-4z" opacity=".58"/><path fill="#0a224a" d="m622.5 231 .5.5v4l-3.5 3.5h-2v-1h2l2.5-2.5v-4z" opacity=".58"/><path fill="#0a224a" d="m309.5 232 2.5 2.5-.5.5-2.5-2.5z" opacity=".58"/><path fill="#0a224a" d="m446.5 232 2.5 2.5-.5.5-2.5-2.5z" opacity=".58"/><path fill="#0a224a" d="M452.5 232q2.5 1 1 2-2.5-1-1-2" opacity=".58"/><path fill="#0a224a" d="m292.5 233 2.5 2.5-.5.5-2.5-2.5z" opacity=".58"/><path fill="#0a224a" d="m304.5 233 3.5 4.5-.5.5-3.5-3.5z" opacity=".58"/><path fill="#0a224a" d="M319.5 233q1.5 1-1 2l-1.5-.5z" opacity=".58"/><path fill="#0a224a" d="m357.5 233 2.5 2.5v1q-1 2.5-2 1l1-2-2-2z" opacity=".58"/><path fill="#0a224a" d="m415.5 233 3.5 4.5-.5.5-3.5-3.5z" opacity=".58"/><path fill="#0a224a" d="m578.5 233 1.5 3.5h-1l-1-2z" opacity=".58"/><path fill="#0a224a" d="M628.5 233h2l2.5 2.5-.5 1.5-2-3q-3-.5-3.5 1.5-.5 2.5 1 3-1 1.5-2-1v-2z" opacity=".58"/><path fill="#0a224a" d="m637.5 233 3.5 4.5-.5.5-3.5-3.5z" opacity=".58"/><path fill="#0a224a" d="m651.5 233 1.5.5-2.5 1.5q-1.5-1 1-2" opacity=".58"/><path fill="#0a224a" d="m663.5 233 2.5 1.5-1.5.5q-2.5-1-1-2" opacity=".58"/><path fill="#0a224a" d="M671.5 233q1.5 1-1 2-1.5-1 1-2" opacity=".58"/><path fill="#0a224a" d="M299.5 234q2.5 1 1 2-2.5-1-1-2" opacity=".58"/><path fill="#0a224a" d="M505.5 234q2.5 1 1 2-2.5-1-1-2" opacity=".58"/><path fill="#0a224a" d="m511.5 234 2.5 2.5-.5.5-2.5-2.5z" opacity=".58"/><path fill="#0a224a" d="m552.5 234 1.5 2.5q-1 2.5-2 1l1-2q-1.7-.8-.5-1.5" opacity=".58"/><path fill="#0a224a" d="M607.5 234q1.2.7-.5 1.5l1 2q-1 1.5-2-1z" opacity=".58"/><path fill="#0a224a" d="m658.5 234 4 4 1.5.5-1.5.5-4.5-4.5z" opacity=".58"/><path fill="#0a224a" d="m313.5 235 2.5.5-2.5.5z" opacity=".58"/><path fill="#0a224a" d="M343.5 235q2.5 1 1 2-2.5-1-1-2" opacity=".58"/><path fill="#0a224a" d="m424.5 235 2.5.5-2.5.5z" opacity=".58"/><path fill="#0a224a" d="m432.5 235 .5 1.5q-1 2.5-2 1z" opacity=".58"/><path fill="#0a224a" d="m523.5 235 2.5.5-2.5.5z" opacity=".58"/><path fill="#0a224a" d="M537.5 235q2.5 1 1 2-2.5-1-1-2" opacity=".58"/><path fill="#0a224a" d="m587.5 235 .5 1.5q-1.5.8-1 2.5h-6.5l-.5-.5.5-.5h5l1.5-1.5z" opacity=".58"/><path fill="#0a224a" d="M321.5 236q1.5 1-1 2-1.5-1 1-2" opacity=".58"/><path fill="#0a224a" d="M449.5 236q1 3 6 2v-2l2.5 2.5-.5.5h-6l-2.5-2.5z" opacity=".58"/><path fill="#0a224a" d="M654.5 236q1.5 1-1 2-1.5-1 1-2" opacity=".58"/><path fill="#0a224a" d="M412.5 237q1.5 1-1 2-1.5-1 1-2" opacity=".58"/><path fill="#0a224a" d="m507.5 237 1 1h6l.5.5-.5.5h-6q-2.5-1-1-2" opacity=".58"/><path fill="#0a224a" d="M673.5 237q1.5 1-1 2l-2.5-.5 2.5-.5z" opacity=".58"/><path fill="#0a224a" d="m22.5 238 2.5.5-2.5.5z" opacity=".58"/><path fill="#0a224a" d="m39.5 238 2.5.5-2.5.5z" opacity=".58"/><path fill="#0a224a" d="M296.5 238h6l.5.5-.5.5h-6z" opacity=".58"/><path fill="#0a224a" d="M438.5 238h4l.5.5-.5.5h-4z" opacity=".58"/><path fill="#0a224a" d="m519.5 238 2.5.5-2.5.5z" opacity=".58"/><path fill="#0a224a" d="M597.5 238h5l.5.5-.5.5h-5z" opacity=".58"/><path fill="#0a224a" d="m32.5 239 2.5.5-2.5.5z" opacity=".58"/><path fill="#fbbd05" d="M123.5 24q2 .5 1.5 3.5-1 1.5-2-1z" opacity=".965"/><path fill="#fbbd05" d="m122.5 29 .5 1.5q-1 2.5-2 1z" opacity=".965"/><path fill="#fbbd05" d="M127.5 33h1l4.5 3.5q.8 2.3-1.5 1.5l-4 3-.5-.5 3-3q1.1-3.3-1.5-2.5-2.5-1-1-2" opacity=".965"/><path fill="#fbbd05" d="m118.5 34 .5.5-2 2v1l4.5 4.5q2.3-.7 1.5 1.5.7 1.2 1.5-.5l1.5.5-2.5 5.5-2.5-6.5-3.5-3.5h-2l-3.5-2.5 2.5-.5 1-1 1 1z" opacity=".965"/><path fill="#fbbd05" d="m143.5 42 1.5 2.5V47q2.5-.5 3.5 2l2.5.5q-4 1-6 4l-1.5 3.5-4-6-3.5-1.5q4-1 6-4z" opacity=".965"/><path fill="#fbbd05" d="M212.5 72q1.5 1-1 2-1.5-1 1-2" opacity=".965"/><path fill="#fbbd05" d="M218.5 73q2.5 1 1 2-2.5-1-1-2" opacity=".965"/><path fill="#fbbd05" d="m222.5 77 2 2 2 1h2l2.5 1.5-2.5.5-1 1h-2l-4 3-.5-.5 2.5-2.5 3.5-1.5-5-4z" opacity=".965"/><path fill="#fbbd05" d="m201.5 80 1.5.5-1 1q1.7.8.5 1.5l-3.5-1.5z" opacity=".965"/><path fill="#fbbd05" d="m211.5 88 3 4q4.2-1.3 2.5 3.5l-1 1-.5 3.5-1.5-6.5-3-5z" opacity=".965"/><path fill="#fbbd05" d="m191.5 96 1.5 1.5v2l1 2 2.5 2.5 5.5 2.5-2.5 1.5h-2l-4.5 4.5v2l-1.5 2.5-.5-2.5-3.5-5.5-5.5-2.5 1.5-1.5h2q1-2.5 3.5-2zm.5 5-3 4h2l1 2 2-1 1-1z" opacity=".965"/><path fill="#fbbd05" d="M30.5 103q1.1 6.4 6 9l3.5 1.5-3.5 1.5-2 2H33v1.5l-2.5 4.5q-.9-5.6-5-8l-4.5-1.5 5.5-2.5 1.5-1.5z" opacity=".965"/><path fill="#fbbd05" d="M96.5 109q2.5 1 1 2h-1l-2.5 2.5q.8 2.3-1.5 1.5-1.2 2.3-2.5-.5 1.1-3 4-2.5l.5-2q.8 1.8 1.5.5z" opacity=".965"/><path fill="#fbbd05" d="m102.5 113 1.5.5q-2.5 1-2 3.5-2.9-.5-4 2.5l2 1-2.5 1.5-1.5-2.5q2.5-1 2-3.5h2q-1.1-2.7 1.5-2z" opacity=".965"/><path fill="#fbbd05" d="m52.5 114 2.5 5.5 2.5 2.5 4.5 1.5-5.5 2.5-1.5 1.5-1 2v2.5q-3 1.3-2-2.5-1.5-.7-1-2.5h-1.5l-2-2-3.5-1.5 2.5-.5 4.5-4.5z" opacity=".965"/><path fill="#fbbd05" d="m142.5 118 13 13h1.5q-1.1 2.7 1.5 2l27 26h1.5q-1.1 2.7 1.5 2l8.5 8.5-.5.5-8 4-7.5 7.5-4 7v1.5q-2.7 1.1-2-1.5l-45-42 2.5-2.5 11 11h1l21 20h1l9 8 .5-3h-1.5l-28-27h-1l-10-10-2.5-1.5v-6l-3-5z" opacity=".965"/><path fill="#fbbd05" d="m123.5 130 .5 2.5h-1z" opacity=".965"/><path fill="#fbbd05" d="m125.5 132 .5 2.5 2 3v5.5q-1.7-.5-2.5 1l-2.5-1.5q2.5-.5 2-4h-2l1-1v-2l1-1z" opacity=".965"/><path fill="#fbbd05" d="M63.5 155h5l.5.5-4.5 1.5-40 40H23q1.1 2.7-1.5 2-.7 1.5-2.5 1l1-4 3.5-1 8.5-8.5v-1l4.5-4.5 1 1 7.5-7.5q-.7-2.2 1.5-1.5l5-6H53v-3h1.5z" opacity=".965"/><path fill="#fbbd05" d="m71.5 160 .5.5-7.5 7.5-.5-.5z" opacity=".965"/><path fill="#fbbd05" d="m57.5 173 1.5.5q-3.6.9-5 4l-1.5 2.5h-1l-2.5 2.5v1l-6.5 6.5h-1l-2.5 2.5v1l-6.5 6.5h-1l-2 2-.5-.5z" opacity=".965"/><path fill="#fbbd05" d="M116.5 176q.9 5.6 5 8l3.5 1.5q-.5 2-3.5 1.5l-3.5 3.5-1.5 4.5q-.9-5.6-5-8l-3.5-1.5 6-4z" opacity=".965"/><path fill="#fbbd05" d="m75.5 177 .5.5-4.5 4.5-.5-.5z" opacity=".965"/><path fill="#fbbd05" d="m67.5 185 .5.5-2.5 2.5-1.5-.5z" opacity=".965"/><path fill="#fbbd05" d="m82.5 187 .5.5-2.5 2.5-.5-.5z" opacity=".965"/><path fill="#fbbd05" d="M61.5 191q1.5 1-1 2-1.5-1 1-2" opacity=".965"/><path fill="#fbbd05" d="m77.5 192 .5.5-2.5 2.5-.5-.5z" opacity=".965"/><path fill="#fbbd05" d="m53 199 2 .5q-1 2.5-2 1z" opacity=".965"/><path fill="#fbbd05" d="m27.5 203 .5.5-2.5 2.5-.5-.5z" opacity=".965"/><path fill="#f29708" d="m123.5 22 1.5 2.5h-2v4l-1 2-4.5 4.5h-2q-.7 1.5-2.5 1 .5-1.7-1-2.5l.5-.5 2 2 1-1h2l2.5-2.5v-1l2-2v-4z" opacity=".169"/><path fill="#f29708" d="m126.5 30 6 5h2l2.5 1.5-2.5 1.5v-2h-2l-4-3H127q.5-1.7-1-2.5z" opacity=".169"/><path fill="#f29708" d="M111.5 35v2l1.5.5q-1.5 3-3 0z" opacity=".169"/><path fill="#f29708" d="M114.5 38q.5 1.5 3 1l3.5 3.5 1 2q-1 1.5-2-1 .8-2.6-2.5-1.5v-2q-2.5.5-3-1-.7 1.8-1.5.5z" opacity=".169"/><path fill="#f29708" d="M131.5 38q1.5 1-1 2h-1l-2 2-.5-.5 2.5-2.5z" opacity=".169"/><path fill="#f29708" d="M142 40q2.7-1.1 2 1.5l-2 4-2.5 2.5-3.5 1.5 5 3q.4 3.1 2.5 4.5 1-4 4-6l3.5-1.5-2.5-.5q-1-2.5-3.5-2 .8-2.6-1-3.5 1-1.5 2 1l1.5 2.5 2 1h3l1.5 1.5-1.5 2.5-1-2-5.5 3.5-2.5 6.5-1.5-1.5v-2l-2.5-4.5q-.7 1.8-1.5.5.8-2.6-2.5-1.5-.8 1.7-1.5.5 1.8-.7.5-1.5l-1.5-.5q.8-2.2 4.5-1.5l4.5-4.5z" opacity=".169"/><path fill="#f29708" d="M126.5 43q1.2.7-.5 1.5v2l-2.5 5.5q-2.5-1-1.5-5.5h1l.5 2.5 1.5-2.5v-2z" opacity=".169"/><path fill="#f29708" d="m215.5 61 .5 1.5-1 1-.5 2.5-.5-3.5z" opacity=".169"/><path fill="#f29708" d="m216.5 65 1.5 2.5v2h-1q.5-2.5-1-3z" opacity=".169"/><path fill="#f29708" d="m213.5 67 .5 1.5q-1.5.5-1 3l-4.5 5.5-6 3q-1.5-1 1-2 3.3 1.1 2.5-1.5l6-5v-2z" opacity=".169"/><path fill="#f29708" d="M218.5 71q2 .9 1.5 3h2v2h2q-1.1 2.7 1.5 2l2.5 1.5-1.5.5-4-3H221v-1.5l-3-4z" opacity=".169"/><path fill="#f29708" d="m198.5 79 2.5 1.5-2 1 2.5 1.5h3l4.5 3.5-2 .5q1.1-2.7-1.5-2-1-2-2 0-3.2.8-4-1-1.2 2.3-2.5-.5-.7-3.7 1.5-4.5" opacity=".169"/><path fill="#f29708" d="m232.5 79 1.5 1.5V84q-2.7 1.1-2-1.5l-3-2 2.5-.5z" opacity=".169"/><path fill="#f29708" d="m228.5 82 2.5 1.5q-.8 1.2-1.5-.5H228q1.1 2.7-1.5 2-1.2-2.2-2.5.5l-.5 1.5q-.8-1.8-1.5-.5V88q-2.7-1.1-2 1.5l-2 3-.5 2.5-.5-2.5 2-4 3.5-3.5z" opacity=".169"/><path fill="#f29708" d="M210.5 88q2.5 1 1 2-2.5-1-1-2" opacity=".169"/><path fill="#f29708" d="m212.5 91 1.5 3.5h-1l-1-2z" opacity=".169"/><path fill="#f29708" d="m191.5 93 1.5 1.5 1 5 2.5 3.5 7.5 3.5-2.5 2.5-1.5-1.5 2-1-5.5-2.5-2.5-2.5-1-2v-2l-1.5-1.5-1 3-.5-2.5 1-1z" opacity=".169"/><path fill="#f29708" d="m214.5 96 .5 3.5 1 1-2 .5z" opacity=".169"/><path fill="#f29708" d="M189.5 100q1.2.7-.5 1.5.8 2.3-1.5 1.5l-2 2q-3-.5-3.5 1.5l5.5 2.5 1.5 1.5 1 2q-.8 1.2-1.5-.5-2.2.8-1.5-1.5-.8-1.3-1.5.5l-2-2-2-1q-.8 1.8-1.5.5 1.8-.7.5-1.5l-1.5-.5 1.5-1.5 5.5-1q-1.1-2.7 1.5-2z" opacity=".169"/><path fill="#f29708" d="m30.5 101 1.5 1.5v3q1.5.8 1 2.5l2 .5-1.5.5-2.5-3.5q.5-2.5-1-3z" opacity=".169"/><path fill="#f29708" d="m29.5 104 .5 1.5-3.5 5.5-2 1-.5-2q2.9.5 4-2.5z" opacity=".169"/><path fill="#f29708" d="m197.5 108 2.5 1.5q-.8 1.2-1.5-.5h-1l-3.5 3.5-.5 1.5-.5-1.5z" opacity=".169"/><path fill="#f29708" d="m35.5 110 3 2h2l2-1 1.5 2.5q-1 2.3-4 1.5 1.1-2.7-1.5-2l-3.5-2.5z" opacity=".169"/><path fill="#f29708" d="M52.5 111H54v4.5h-1v-1l-2-2z" opacity=".169"/><path fill="#f29708" d="m20 112 3 .5-2 1q5.6.9 8 5l1 3h-1q-.6-3.9-3.5-5.5l-2-1H20z" opacity=".169"/><path fill="#f29708" d="M38.5 114q1.2.7-.5 1.5.8 2.6-2.5 1.5l-3 3-.5-.5q1.5-.7 1-2.5h1.5z" opacity=".169"/><path fill="#f29708" d="m190.5 114 1 3 1-2 .5 2.5q-1 2.5-2 1l-1-2z" opacity=".169"/><path fill="#f29708" d="m51.5 115 .5 1.5-5.5 6.5-2.5.5 3.5 1.5 2 2H51l1 4-4-1.5 2-1q-.5-2-3.5-1.5l-2-2H42v-3h4.5q3.7-2.3 5-7" opacity=".169"/><path fill="#f29708" d="M54.5 117q2 .9 1.5 3l3 .5-1.5 1.5-2.5-2.5-1-2z" opacity=".169"/><path fill="#f29708" d="m143.5 118 11 11h2.5v1.5l11.5 11.5h1.5q-1.1 2.7 1.5 2v1h-1l-12-12H157q1.1-2.7-1.5-2L143 118.5z" opacity=".169"/><path fill="#f29708" d="m31.5 121 .5 4q-2.7 1.1-2-1.5z" opacity=".169"/><path fill="#f29708" d="M59.5 122q3.8-.7 4.5 1.5l-1.5 2.5q-.7-1.5-2.5-1 .5 2.1-1.5 3-3-.5-3.5 1.5l-.5 1.5-.5-1.5 2.5-3.5 5.5-2.5-2.5-.5z" opacity=".169"/><path fill="#f29708" d="M52 132h2v3h-2z" opacity=".169"/><path fill="#f29708" d="m632.5 140 2.5.5-2.5.5z" opacity=".169"/><path fill="#f29708" d="m175.5 148 8.5 7.5 1.5 2.5h1l6 6h1.5v2h2v2q2.7-1.1 2 1.5l-.5.5-9-9H187q1.1-2.7-1.5-2L175 148.5z" opacity=".169"/><path fill="#f29708" d="M440.5 149h3l2.5 1.5-1.5.5q-.7-1.7-4-1z" opacity=".169"/><path fill="#f29708" d="m671.5 149 2.5.5-5 1.5q.5 1.8-1 2.5v3q1.5.8 1 2.5l2 .5-2.5 1.5q-1.3-.8.5-1.5l-1-1-1-2v-3l2.5-3.5z" opacity=".169"/><path fill="#f29708" d="m438.5 150 .5.5-2 2q-1.2 5.8 2 7l-.5.5-2.5-2.5q-1.2-6.2 2.5-7.5" opacity=".169"/><path fill="#f29708" d="m675.5 150 2.5 1.5-.5 1.5-.5-2-2-.5z" opacity=".169"/><path fill="#f29708" d="m446.5 152 1.5 2.5h-1l-1-2z" opacity=".169"/><path fill="#f29708" d="m186.5 154 2.5 2.5-.5.5q-2.2.8-1.5-1.5-1.8-.8-.5-1.5" opacity=".169"/><path fill="#f29708" d="M458.5 155q1.2.7-.5 1.5-.5 1.9.5 1.5h6.5v12.5q-.4 1 1.5.5l5.5-5.5q-1.8-.7-.5-1.5h2.5q-1.1-2.7 1.5-2l.5.5-9 9v1l-2.5 2.5-.5-.5V159h-8.5l-.5-.5 2-.5q-.5-2.1 1.5-3" opacity=".169"/><path fill="#f29708" d="M537.5 155q1.5 1-1 2-1.5-1 1-2" opacity=".169"/><path fill="#f29708" d="m569.5 155 .5 1.5q-1.8.7-.5 1.5h12l1.5 1.5v6l-.5.5-.5-.5V159h-27.5l-.5-.5.5-.5H568q-.5-2.1 1.5-3" opacity=".169"/><path fill="#f29708" d="M633.5 155q1.2.7-.5 1.5-.7 2.3 1.5 1.5v1h-9q-1-.4-.5 1.5 1.7.7.5 1.5-2.2-1-1.5-4h7.5l.5-.5q-1.7-.7-.5-1.5z" opacity=".169"/><path fill="#f29708" d="M66.5 156h2q.8 1.5 2.5 1-.5 1.8 1 2.5-1 2.5-2 1 .5-3-1.5-3.5-3.5.5-5 3H62v2h-2v2h-2v2h-2v2h-2v2h-2v2h-2v2h-2v2h-2v2h-2v2h-2q1.1 2.7-1.5 2L27 195.5v1.5h-1.5l-3.5 3.5q-.5 3 1.5 3.5h2l6.5-6.5q-.7-2.2 1.5-1.5L48 181.5V180h1.5l3.5-3.5q-.7-2.2 1.5-1.5l14-13 .5.5-8.5 8.5H59q1.1 2.7-1.5 2l-32 32h-2l-3.5-3.5 1-1V199h2q-1.1-2.7 1.5-2l39-39h1z" opacity=".169"/><path fill="#f29708" d="M280.5 156v2h15q1 .4.5-1.5h1q-.5 1.9.5 1.5h14q.8 1.5 2.5 1v3q-3-1.2-2 2.5 2 1 0 2l-.5 1.5-1-2-1 2-.5-2h-3v1.5h-1l-.5-1.5-1 2-1-2-1.5 2.5V192q2.7-1.1 2 1.5-.8 1.2-1.5-.5l-3 3-.5-.5-.5-1.5-1 2-1-1-6.5-1.5 1-1v-9q-2-1 0-2l-1-2 1-1v-9q-1.7-.9-1-3.5h-4v1.5h-1V166h-4v-7.5q-2.2-1.2.5-2.5m.5 3v6h10v28h9v-28h11v-6z" opacity=".169"/><path fill="#f29708" d="m446.5 156 .5 1.5q-1.5.8-1 2.5l-2-.5z" opacity=".169"/><path fill="#f29708" d="m352.5 157 1 1h9.5v14.5l.5.5.5-1.5 5-5q-1.7-.7-.5-1.5l1 1 2.5-2.5q-.7-2.2 1.5-1.5 1.2-.8-.5-1.5-.7-2.6 2-1.5v2.5l-10 10-1.5 2.5q-1.9.5-1.5-.5V159h-8v33.5l.5.5h6q.7 1.7 1.5.5v-9l3.5-3.5.5.5-2 2-1 2v9l-1.5 1.5q-4 1-5-1l-2 1-2.5-2.5v-14q2-1 0-2-.5-2.5 1-3-1.7-.7-1-4 2-1 0-2-1-4 1-5-1.7-.7-1-4l1-1q-1.7-.7-.5-1.5" opacity=".169"/><path fill="#f29708" d="M400.5 157q.5 1.5 3 1l2.5 2.5v1l3 3-.5.5-3.5-3.5-1.5-2.5h-9l-.5-.5.5-.5h5z" opacity=".169"/><path fill="#f29708" d="m427.5 157 1.5 1.5v3l1 2q-1.5.5-1 3 2 1 0 2-.5 2.5 1 3v3l-1 2q1.5.5 1 3l-1 2q1.5.5 1 3l-1 1v5.5q2.7-1.1 2 1.5l-3.5 3.5-2-2-.5.5-.5 1.5-.5-2h-5.5l-.5-.5.5-.5h8q.8 1.7 1.5.5v-34l-.5-.5h-6v-1h5z" opacity=".169"/><path fill="#f29708" d="M529.5 157h5l.5.5-.5.5h-5z" opacity=".169"/><path fill="#f29708" d="m654.5 157 1 1h6q.8-1.8 1.5-.5.5 1.9-.5 1.5h-7l-2.5 3.5v2l-2 3v2l-2 3v2l-2.5 4.5-1.5-2.5h2l1-2v-2l1-1-2-1 3-.5v-2.5l3-6q-1.7-.8-.5-1.5h1.5z" opacity=".169"/><path fill="#f29708" d="m677.5 157 .5 1.5-2.5 1.5v-1h1.5z" opacity=".169"/><path fill="#f29708" d="M696.5 157h6l.5.5-.5.5h-6z" opacity=".169"/><path fill="#f29708" d="M316 158h29.5l.5.5-.5.5H317v33.5l1 2q-1 1.5-2-1z" opacity=".169"/><path fill="#f29708" d="M376.5 158h11q1-.4.5 1.5l-1 2-11 11v1.5l-2 .5 2 2-.5.5-2.5-2.5 12-12v-1l2-2-.5-.5h-10z" opacity=".169"/><path fill="#f29708" d="M478.5 158H491v2q-2.7-1.1-2 1.5l-11 11-1 2 11 14-.5.5-3.5-3.5-3-5-4-4-1-3 9-9V163q2.7 1.1 2-1.5l2-2-.5-.5h-10l-2 2-2.5-1.5 3.5-.5z" opacity=".169"/><path fill="#f29708" d="m523.5 158 3.5.5-3.5.5-1 1q-1.5-1 1-2" opacity=".169"/><path fill="#f29708" d="M537.5 158h3l3 2h3q.8-1.8 1.5-.5l-2 2q.5 3.5-2 4v4l-.5.5q-1-2-5-1l-2-2q-.8 1.8-1.5.5.5-1.9-.5-1.5h-6v-1h7l1 1h2l3 2h1.5v-2.5l2-3V161h-1.5l-3-2h-3z" opacity=".169"/><path fill="#f29708" d="M590.5 158h22l3 2 2-1q1.2.7-.5 1.5l1.5 1.5q2.3-.7 1.5 1.5 1.7.8.5 1.5l-4-4-4-2h-22z" opacity=".169"/><path fill="#f29708" d="M664 158q3-1.2 2 2.5l-3 3-1 2v2l-1 1q1.7.7.5 1.5-2.2-.7-1.5 1.5l-2 3v2l-1.5 1.5q-1.3-.8.5-1.5v-2l4-7v-2l2-3V161l2-.5q-1.5-.7-1-2.5" opacity=".169"/><path fill="#f29708" d="m691.5 158 3.5.5-3.5.5-1 1q-1.5-1 1-2" opacity=".169"/><path fill="#f29708" d="M705.5 158h3l5.5 3.5-1 2q1.8.8.5 1.5-.7-1.7-1.5-.5v2l-2.5 2.5q-.5-1.5-3-1l-1.5-1.5 1.5-.5 3 2 1.5-1.5v-2l2-3-4.5-2.5h-3z" opacity=".169"/><path fill="#f29708" d="m440.5 160 2.5.5-2.5.5z" opacity=".169"/><path fill="#f29708" d="m520.5 160 .5.5-3.5 3.5v-3l1 1z" opacity=".169"/><path fill="#f29708" d="M672.5 160h1.5q-1.1 2.7 1.5 2 .8 1.5 2.5 1v30.5l-.5.5-.5-.5V164h-7.5l-.5.5v29q.7 1.2 1.5-.5h5.5v3h-4q1-3-2-2 1.1 2.7-1.5 2-1.3-.8.5-1.5l-1-1v-28l-1-1 1.5-1.5q3.8.8 4.5-1.5-1.7-.8-.5-1.5" opacity=".169"/><path fill="#f29708" d="m687 160 2 .5-3.5 3.5-.5-.5q2.5-1 2-3.5" opacity=".169"/><path fill="#f29708" d="M438.5 162q2.5-.5 3 1l2-1 1 1 3.5.5-1 2q2 1 0 2-.7 3.3 1 4l-1 1v4l-.5.5-.5-.5V164h-8.5l-.5-.5z" opacity=".169"/><path fill="#f29708" d="m553.5 162 .5 2.5h-1z" opacity=".169"/><path fill="#f29708" d="m626.5 163 .5 2.5 1 1q-1 1.5-2-1z" opacity=".169"/><path fill="#f29708" d="M636.5 163q2 .5 1.5 3.5h-1q.5-2.5-1-3z" opacity=".169"/><path fill="#f29708" d="M326 165h19.5l.5.5-2.5.5-1 1q-.7-1.7-4-1-1 2-2 0H327v4l4 .5-2.5 1.5-1-1q-.7 1.8-1.5.5z" opacity=".169"/><path fill="#f29708" d="m516.5 165 .5.5v7l1 1q-1 1.5-2-1v-7z" opacity=".169"/><path fill="#f29708" d="M563 165h17.5q.8-.2.5 2.5h-1l-.5-1.5-.5 2h-2v-2h-7q1 3-2 2 1.3-3.3-3.5-2-.8 1.8-1.5.5z" opacity=".169"/><path fill="#f29708" d="M599 165h7.5l.5.5-.5.5h-4l-1.5 1.5q1.8.8.5 1.5-2.6-.8-1.5 2.5l1 2q-1.7.7-.5 1.5l1.5.5-3 .5z" opacity=".169"/><path fill="#f29708" d="M683.5 165q1.9-.5 1.5.5v7l4.5 4.5 1.5.5-1.5.5q-1-2.5-3.5-2 .5-2.5-2-3.5v-6q-1.7-.7-.5-1.5" opacity=".169"/><path fill="#f29708" d="M696.5 165h7l.5.5-7 1 2 1-1.5.5q-.7-1.5-2.5-1-.5 2.1 1.5 3l1-1 2 2 1.5.5-1.5.5-1-1h-2q-.7-1.5-2.5-1v-4h1.5z" opacity=".169"/><path fill="#f29708" d="m409.5 166 2.5 2.5-.5.5-2.5-2.5z" opacity=".169"/><path fill="#f29708" d="M608 166q2.9-.5 4 2.5l-.5 2.5-1.5-1.5q1.8-.7.5-1.5-3.7 1-2.5-2" opacity=".169"/><path fill="#f29708" d="m621.5 166 .5.5v8l-3 4-.5 2.5q-1.2-2.2-2.5.5l-.5 1.5q-2.5-1-1-2h1l4.5-4.5 1-2v-8z" opacity=".169"/><path fill="#f29708" d="M569.5 169q2.5 1 1 2l-2 1-.5-1.5z" opacity=".169"/><path fill="#f29708" d="M412.5 170q2.3-.7 1.5 1.5 2.5 1 2 3.5 2.1-.5 3 1.5l-1 1 2 2-.5.5-7.5-9.5z" opacity=".169"/><path fill="#f29708" d="M528.5 170q3-.5 3.5 1.5-.8 1.2-1.5-.5-3 .5-2-1" opacity=".169"/><path fill="#f29708" d="M562.5 170q2.5 1 1 2-2.8.7-1-2" opacity=".169"/><path fill="#f29708" d="m704.5 171 2 2 5 2 2.5 2.5-.5 1.5-2-3-6-3-3.5-.5z" opacity=".169"/><path fill="#f29708" d="m344.5 172 .5.5v5l1 1-1.5 1.5H327v5.5l.5.5h18q2.5 1 1 2l-1-1H326v-8h18v-6.5z" opacity=".169"/><path fill="#f29708" d="M402 172q2.7-1.1 2 1.5l8 10-2 .5v-1.5l-5.5-7.5q-2.2-.7-1.5 1.5 2 1 0 2-.5 2.5 1 3l-1 1v12l-1.5 1.5q-1-2-2 0l-2-1q-.9 1.8-3.5 1v-3h5.5q.8 1.5 2.5 1z" opacity=".169"/><path fill="#f29708" d="M534.5 172h3l2.5 1.5-1.5.5q-.7-1.7-4-1z" opacity=".169"/><path fill="#f29708" d="m610.5 172 1.5.5-2 1q1.8.7.5 1.5-3-1.5 0-3" opacity=".169"/><path fill="#f29708" d="M629 173q2.7-1.1 2 1.5l3 6-2.5 2.5-.5-.5 2-2-2.5-2.5-1.5-.5 1-2q-1.5-.7-1-2.5" opacity=".169"/><path fill="#f29708" d="M640.5 173q2 .5 1.5 3.5h-1q.5-2.5-1-3z" opacity=".169"/><path fill="#f29708" d="M116.5 174h1.5v4.5l4 5-.5.5-3.5-3.5-1.5-4.5-2.5 5.5-1.5 1.5-4.5 2.5q4.7 1.3 7 5l1.5 4.5q.9-5.6 5-8 3 .5 3.5-1.5l-2-1 3.5-.5 1.5 1.5-2.5 2.5q-1-2-2 0h-2l-2.5 2.5-1 2v4.5q-2.9.5-4-2.5l1-2-3.5-4.5q-3.1-.4-4.5-2.5-.8-2.6 2.5-1.5l4.5-4.5 1-2v-2z" opacity=".169"/><path fill="#f29708" d="M541.5 174h1l2 2h1.5l-.5 2-4.5-3.5z" opacity=".169"/><path fill="#f29708" d="m553.5 174 .5 2.5q-1 2.5-2 1l1-1z" opacity=".169"/><path fill="#f29708" d="m580.5 174 .5.5v5.5h-10.5l-1 1q-.7-1.7-4-1-.7 1.5-2.5 1v-2h17z" opacity=".169"/><path fill="#f29708" d="m520.5 176 2.5 1.5-1.5.5q-2.5-1-1-2" opacity=".169"/><path fill="#f29708" d="M376.5 178q2.3-.7 1.5 1.5l6 7-.5.5-4.5-4.5v-1l-3-3z" opacity=".169"/><path fill="#f29708" d="m524.5 178 1 1 3.5.5-5 .5z" opacity=".169"/><path fill="#f29708" d="m692.5 178 1 1 3.5.5-3.5.5q-2.5-1-1-2" opacity=".169"/><path fill="#f29708" d="m446.5 179 .5 2.5h-1z" opacity=".169"/><path fill="#f29708" d="m655.5 179 .5 4-2-.5 1-1z" opacity=".169"/><path fill="#f29708" d="m468.5 180 2.5 1.5v1l3 3-.5.5-3.5-3.5-.5-1.5-4.5 4.5v9l-1.5 1.5q-3.2.8-4-1l-1 1q-1-2-2 0-2.6.8-1.5-2.5.7-1.3 1.5.5l1-1h6.5v-7.5q1.5-.7 1-2.5 2.7 1.1 2-1.5z" opacity=".169"/><path fill="#f29708" d="M643 180h3v1.5l-1.5 2.5z" opacity=".169"/><path fill="#f29708" d="m714.5 180 .5.5v5h-1v-5z" opacity=".169"/><path fill="#f29708" d="M534 181q2.1-.5 3 1.5.8 3.8-1.5 4.5-3.7 1-2.5-2 2.7 1.1 2-1.5-1.5-.7-1-2.5" opacity=".169"/><path fill="#f29708" d="m547.5 181 .5.5v5l-2.5 3.5-.5-1.5 2-3v-4z" opacity=".169"/><path fill="#f29708" d="M701.5 181q3-.5 3.5 1.5.8 3.8-1.5 4.5h-11l-5-3q-.7 1.7-1.5.5l1.5-2.5.5 2h1.5l3 2h4q1-2 2 0h5.5v-4h-2.5z" opacity=".169"/><path fill="#f29708" d="m368.5 183 3.5 3.5v1l4.5 5.5h10q1 .4.5-1.5l-3-3 .5-.5q2.3-.7 1.5 1.5l4 3-1 3.5q-2.5.5-3.5-2l-1 2q-.5-1.5-3-1-.7 1.5-2.5 1 1.3-3-2.5-2l-3.5-2.5 1-1-3-3-1.5-2.5q-.8 1.8-1.5.5l1-1q-1.7-.7-.5-1.5" opacity=".169"/><path fill="#f29708" d="M599 183h6.5l1.5 1.5v1l5.5 7.5q4-1 5 1l1-1h4l.5-.5-7-8 2-.5v1.5l4.5 5.5h1.5v3.5q-.7 1.2-1.5-.5-3.5-.5-4 2H614q1.1-2.7-1.5-2l-7-9q-2.5-.5-3 1-1.2-2.2-2.5.5l1 2q-1.5.8-1 2.5 3-1.2 2 2.5l-1 1q1.8.8.5 1.5H597v-1.5h-1q.8 2.3-1.5 1.5l-2-2-1 1q-2.6.7-1.5-2h9z" opacity=".169"/><path fill="#f29708" d="m446.5 184 .5 2.5 1 1q-1 1.5-2-1z" opacity=".169"/><path fill="#f29708" d="m520.5 184 3.5 1.5-1.5.5-2.5-1.5z" opacity=".169"/><path fill="#f29708" d="M653.5 184q2.5 1 1 2-2.2-.7-1.5 1.5l-1.5 2.5-.5-1.5z" opacity=".169"/><path fill="#f29708" d="m412.5 185 5.5 6.5-.5.5-3.5-3.5v-1l-2-2z" opacity=".169"/><path fill="#f29708" d="M564.5 185q.8 1.8 4 1 1-2 2 0h12l1.5 1.5-1 1q2 1 0 2l2 2v1.5h-3v2h-4.5l-2-1q-.5 1.5-3 1l-1-1-2 2-1-1H567q1.1-2.7-1.5-2-1 2.5-3.5 2 1-3-2-2 1.3 3.3-3.5 2-2-4-4 0l-1.5-.5 1-1V190h2v2.5l.5.5h26q.8 1.7 1.5.5V187h-18.5q-1.5-1 1-2" opacity=".169"/><path fill="#f29708" d="m635.5 185 1.5 1.5q-.5 2.5 1 3-1 1.5-2-1 .5-2.5-1-3z" opacity=".169"/><path fill="#f29708" d="M517.5 186q1.2.7-.5 1.5l-1.5 2.5v-3z" opacity=".169"/><path fill="#f29708" d="m525.5 186 3.5.5-3.5.5z" opacity=".169"/><path fill="#f29708" d="M685.5 186q1.2.7-.5 1.5-.7 3.3 1 4l-2 .5q.7-2.6-1-3.5z" opacity=".169"/><path fill="#f29708" d="m474.5 187 4.5 4.5v1.5h10.5l.5-.5-1-2h1v1.5q2.7-1.1 2 1.5l-1.5 1.5q-.7-1.8-1.5-.5.7 2.6-2 1.5 1.1-2.7-1.5-2-1.1 2.8-4.5 2 1.1-2.7-1.5-2l-5.5-6.5z" opacity=".169"/><path fill="#f29708" d="M713.5 187q2.5 1 1 2h-1l-5 5h-3v-1q5.6-.4 7.5-4.5z" opacity=".169"/><path fill="#f29708" d="m446.5 190 .5 3.5q-1.4 2.1-4.5 2.5l-1-1-1 1-1-1q-.8 1.7-1.5.5l-1-2q.7-1.3 1.5.5l1-1h5l1 1z" opacity=".169"/><path fill="#f29708" d="m346.5 191 .5 3q-3-1-2 2h-3.5q-1 2-2 0-2.2.8-1.5-1.5h-1l-.5 1.5-2-2-.5.5v1.5h-4l-.5-2-1 2-1-2-1 2-2-2-1 1q-.8-1.8-1.5-.5.8 2.3-1.5 1.5-2-.9-1.5-3h27z" opacity=".169"/><path fill="#f29708" d="M516.5 191h2l2 2 3.5.5-2.5 1.5-1-1-2.5-.5q1.8-.7.5-1.5-3 .5-2-1" opacity=".169"/><path fill="#f29708" d="m542.5 191 1.5.5-3.5 2.5h-3v-1q4.3.8 5-2" opacity=".169"/><path fill="#f29708" d="M549.5 191q3 1.5 0 3z" opacity=".169"/><path fill="#f29708" d="m638.5 191 .5 2h8.5l1 1q.8-1.5 2.5-1l-.5 3-1-2-.5 2h-6.5l-3-2H638z" opacity=".169"/><path fill="#f29708" d="m687.5 192 1 1 3.5.5-2.5 1.5-2.5-2.5z" opacity=".169"/><path fill="#f29708" d="M526 194h9.5l2.5 1.5-2.5.5q-1-2-2 0h-5l-1-1q-.8 1.7-1.5.5z" opacity=".169"/><path fill="#f29708" d="M693.5 194h10l.5.5-1.5 1.5q-4-1-5 1l-4-2z" opacity=".169"/><path fill="#f29708" d="M199.5 200q1.5 1-1 2-1.5-1 1-2" opacity=".169"/><path fill="#f29708" d="M597.5 207q1 2 2 0l1.5 1.5q-.8 1.2-1.5-.5l-2 2-.5-.5 1-1q-1.7-.8-.5-1.5" opacity=".169"/><path fill="#fd9000" d="m135.5 143 2.5 2.5-.5.5-2.5-2.5z" opacity=".965"/><path fill="#fd9000" d="M439.5 150h4q.8 1.5 2.5 1-.5 1.8 1 2.5v2l-3.5 4.5q-5.5 1-6.5-2.5-1.2-6.2 2.5-7.5" opacity=".965"/><path fill="#fd9000" d="M671.5 150h3q.8 1.5 2.5 1-.5 1.8 1 2.5v3q-1.5.8-1 2.5-1.7-.5-2.5 1h-3q-.7-1.5-2.5-1 .5-1.7-1-2.5v-3q1.5-.7 1-2.5 1.8.5 2.5-1" opacity=".965"/><path fill="#fd9000" d="M140.5 151q2.5 1 1 2-2.5-1-1-2" opacity=".965"/><path fill="#fd9000" d="m146.5 153 3.5 3.5-.5.5-3.5-3.5z" opacity=".965"/><path fill="#fd9000" d="m420.5 158 1 1h6.5v34.5l-.5.5-1-1H418v-1.5l-9-11-2-4-3-3V172h-2v21.5q.4 1-1.5.5l-1-1H394v-33.5l.5-.5h9l16 21 .5-.5v-21z" opacity=".965"/><path fill="#fd9000" d="M527.5 158h9l1 1h3l3 2h1.5v1.5l-2 3v2.5h-1.5l-3-2h-2l-1-1h-7q-.7 1.5-2.5 1v4h1.5l1 1h2l4 2h3q.5 1.5 3 1l5.5 4.5 1 2v5l-3.5 5.5h-1l-2 2q-3.2-.8-4 1h-12q-.7-1.8-4-1l-2-2H516l2-5.5 1.5-1.5 6 3h10q2.3-.7 1.5-4.5l-1.5-1.5h-3l-4-2h-3l-7.5-4.5-1-2v-8l4.5-4.5 2-1h3z" opacity=".965"/><path fill="#fd9000" d="m663.5 158 .5 2.5-7 14v2l-2 3v2l-4 7v2l-2.5 3.5-1-1H639v-1.5l-2-3v-2l-2-2v-2l-2-3v-2l-4-7v-2l-2-3v-2l-2-3V159h9.5q.8-.2.5 2.5l2 3v2l2 3v2l2 3v2l2 3v2l1.5 2.5 1.5-2.5v-2l3-5v-2l2-3v-2l2-3v-2l2.5-3.5h7z" opacity=".965"/><path fill="#fd9000" d="M695.5 158h9q.8 1.8 4 1l4.5 2.5-2 3v2l-1.5 1.5-6-3h-7q-.7 1.5-2.5 1v4h1.5l1 1h2l4 2h3l7.5 4.5 1 2v7l-4.5 5.5-2 1h-2l-1 1h-12q-.7-1.8-4-1l-3.5-2.5v-3l2.5-3.5 5 3h11q2.3-.7 1.5-4.5l-1.5-1.5h-3l-4-2h-3l-4-2-4.5-4.5v-8l4.5-4.5 2-1h3z" opacity=".965"/><path fill="#fd9000" d="M281 159h29.5l.5.5v5.5h-11v27.5l-.5.5H291v-27.5l-.5-.5H281z" opacity=".965"/><path fill="#fd9000" d="M317 159h28.5l.5.5v5.5h-20v7h18v7h-18v8h19.5l.5.5v5.5h-26.5l-1 1-1.5-1.5z" opacity=".965"/><path fill="#fd9000" d="M354 159h8v14.5q-.4 1 1.5.5l13-15h10l.5.5-2 2v1l-12 12 3 3 3 5 5 5v1l4 5q-.8 1.2-1.5-.5h-10l-1.5-1.5-3-5-4-4V181h-2.5l-3.5 3.5v9l-.5.5-1-1H354z" opacity=".965"/><path fill="#fd9000" d="M455 159h9v15.5l.5.5 2.5-2.5v-1l11.5-12.5h10l.5.5q-2.5 1-2 3.5-2.7-1.1-2 1.5l-9 9v1l14 18-.5.5H479v-1.5l-5-5v-1l-4.5-5.5-2.5 1.5v1.5q-2.7-1.1-2 1.5l-1 1v7.5h-6.5l-1 1-1.5-1.5z" opacity=".965"/><path fill="#fd9000" d="M554 159h27.5l.5.5v6q-.8 1.2-1.5-.5h-17q-1 0-.5 4.5-1.5.8-1 2.5h18v7h-17v8h19v6.5q-.8 1.2-1.5-.5H554z" opacity=".965"/><path fill="#fd9000" d="M590 159h22.5l4 2 4.5 4.5v9l-5.5 6.5-1.5.5 5 6v1l4 4-.5.5h-4l-1 1q-1-2-5-1l-1.5-1.5v-1l-5.5-7.5H599v10h-9zm9 6v11h4l1 1 7-2q0-2 1-2v-4l-2-3q-3 1-3-1z" opacity=".965"/><path fill="#fd9000" d="M151.5 161q2.5 1 1 2-2.5-1-1-2" opacity=".965"/><path fill="#fd9000" d="M437 164h8.5l.5.5v29q-.8 1.2-1.5-.5h-5l-1 1-1.5-1.5z" opacity=".965"/><path fill="#fd9000" d="M669 164h7.5l.5.5v29q-.8 1.2-1.5-.5h-5l-1 1-.5-.5z" opacity=".965"/><path fill="#fd9000" d="M150.5 165q2.5 1 1 2-2.5-1-1-2" opacity=".965"/><path fill="#fd9000" d="m161.5 167 2.5 2.5-.5.5-2.5-2.5z" opacity=".965"/></svg>